<svg xmlns="http://www.w3.org/2000/svg" xmlns:xlink="http://www.w3.org/1999/xlink" xmlns:lucid="lucid" width="1820.57" height="941.67"><g transform="translate(-39.433070866141634 -80)" lucid:page-tab-id="0_0"><path d="M272.43 100c26.5 0 48 17.9 48 40s-21.5 40-48 40h-144c-26.5 0-48-17.9-48-40s21.5-40 48-40z" stroke="#5e5e5e" stroke-width="3" fill="#fff"/><use xlink:href="#a" transform="matrix(1,0,0,1,85.43307086614163,105) translate(93.88888888888889 39.65277777777778)"/><path d="M195.44 423.33c2.76-1.84 7.23-1.84 10 0l110 73.34c2.76 1.84 2.76 4.82 0 6.66l-110 73.34c-2.77 1.84-7.24 1.84-10 0l-110-73.34c-2.77-1.84-2.77-4.82 0-6.66z" stroke="#5e5e5e" stroke-width="3" fill="#fff"/><use xlink:href="#b" transform="matrix(1,0,0,1,80.43307086614163,420) translate(120.005 53.888888888888886)"/><use xlink:href="#c" transform="matrix(1,0,0,1,80.43307086614163,420) translate(42.47413580246916 76.1111111111111)"/><use xlink:href="#d" transform="matrix(1,0,0,1,80.43307086614163,420) translate(93.98648148148149 102.77777777777777)"/><path d="M200.43 182.5V220" stroke="#5e5e5e" stroke-width="2" fill="none"/><path d="M201.43 182.53h-2v-1.03h2" fill="#5e5e5e"/><path d="M200.43 235.26L195.8 221h9.27z" stroke="#5e5e5e" stroke-width="2" fill="#5e5e5e"/><path d="M200.43 362.5V402" stroke="#5e5e5e" stroke-width="2" fill="none"/><path d="M201.43 362.53h-2v-1.03h2" fill="#5e5e5e"/><path d="M200.43 417.27L195.8 403h9.27z" stroke="#5e5e5e" stroke-width="2" fill="#5e5e5e"/><path d="M331.54 501h-11.7v-2h11.7m169.9-4.87l-.93 3.42-2.52 2.53-3.4.92H365.3v-2H494.3l2.64-.7 1.78-1.8.7-2.63V380h2" fill="#5e5e5e"/><path d="M319.88 501h-.9l-.24-2h1.14M505.07 379h-9.27l4.63-14.26z" fill="#5e5e5e"/><path d="M506.44 380h-12.02l6-18.5m-3.25 16.5h6.52l-3.27-10.03" fill="#5e5e5e"/><use xlink:href="#e" transform="matrix(1,0,0,1,331.5441819772527,489.3333333333333) translate(0 14.222222222222223)"/><path d="M201.43 620h-2v-8h2m0-21.33h-2V580.5h2" fill="#5e5e5e"/><path d="M201.43 579.5v1.02h-2v-1.03M200.43 635.26L195.8 621h9.27z" fill="#5e5e5e"/><path d="M200.43 638.5l-6-18.5h12m-9.26 2l3.26 10.03L203.7 622" fill="#5e5e5e"/><use xlink:href="#f" transform="matrix(1,0,0,1,191.98862642169718,590.6666666666667) translate(0 14.222222222222223)"/><path d="M80.43 646c0-3.3 2.7-6 6-6h228c3.32 0 6 2.7 6 6v108c0 3.3-2.68 6-6 6h-228c-3.3 0-6-2.7-6-6z" stroke="#5e5e5e" stroke-width="3" fill="#fff"/><use xlink:href="#g" transform="matrix(1,0,0,1,92.43307086614163,652) translate(46.88888888888889 26.77777777777778)"/><use xlink:href="#h" transform="matrix(1,0,0,1,92.43307086614163,652) translate(30.46913580246914 53.44444444444445)"/><use xlink:href="#i" transform="matrix(1,0,0,1,92.43307086614163,652) translate(7.1049382716049365 80.11111111111111)"/><use xlink:href="#j" transform="matrix(1,0,0,1,92.43307086614163,652) translate(75.99382716049382 80.11111111111111)"/><use xlink:href="#k" transform="matrix(1,0,0,1,92.43307086614163,652) translate(166.67283950617283 80.11111111111111)"/><path d="M200.43 762.5V802" stroke="#5e5e5e" stroke-width="2" fill="none"/><path d="M201.43 762.53h-2v-1.03h2" fill="#5e5e5e"/><path d="M200.43 817.27L195.8 803h9.27z" stroke="#5e5e5e" stroke-width="2" fill="#5e5e5e"/><path d="M323.54 901h-3.7v-2h3.7m36.9 2h-3.12v-2h3.1" fill="#5e5e5e"/><path d="M319.88 901h-.9l-.24-2h1.14M375.7 900l-14.27 4.64v-9.28z" fill="#5e5e5e"/><path d="M378.93 900l-18.5 6v-12m2 9.26l10.03-3.26-10.03-3.26" fill="#5e5e5e"/><use xlink:href="#e" transform="matrix(1,0,0,1,323.5441819772527,889.3333333333334) translate(0 14.222222222222223)"/><path d="M80.43 246c0-3.3 2.7-6 6-6h228c3.32 0 6 2.7 6 6v108c0 3.3-2.68 6-6 6h-228c-3.3 0-6-2.7-6-6z" stroke="#5e5e5e" stroke-width="3" fill="#fff"/><use xlink:href="#l" transform="matrix(1,0,0,1,92.43307086614163,252) translate(65.22222222222223 53.77777777777778)"/><path d="M380.43 846c0-3.3 2.7-6 6-6h228c3.32 0 6 2.7 6 6v108c0 3.3-2.68 6-6 6h-228c-3.3 0-6-2.7-6-6z" stroke="#5e5e5e" stroke-width="3" fill="#fff"/><use xlink:href="#m" transform="matrix(1,0,0,1,392.43307086614163,852) translate(44.666666666666664 26.77777777777778)"/><use xlink:href="#h" transform="matrix(1,0,0,1,392.43307086614163,852) translate(30.46913580246914 53.44444444444445)"/><use xlink:href="#i" transform="matrix(1,0,0,1,392.43307086614163,852) translate(28.555555555555557 80.11111111111111)"/><use xlink:href="#n" transform="matrix(1,0,0,1,392.43307086614163,852) translate(97.44444444444444 80.11111111111111)"/><use xlink:href="#k" transform="matrix(1,0,0,1,392.43307086614163,852) translate(145.22222222222223 80.11111111111111)"/><path d="M380.43 246c0-3.3 2.7-6 6-6h228c3.32 0 6 2.7 6 6v108c0 3.3-2.68 6-6 6h-228c-3.3 0-6-2.7-6-6z" stroke="#5e5e5e" stroke-width="3" fill="#fff"/><use xlink:href="#o" transform="matrix(1,0,0,1,392.43307086614163,252) translate(45.9320987654321 53.77777777777778)"/><use xlink:href="#p" transform="matrix(1,0,0,1,392.43307086614163,252) translate(127.84567901234567 53.77777777777778)"/><path d="M680.43 246c0-3.3 2.7-6 6-6h228c3.32 0 6 2.7 6 6v108c0 3.3-2.68 6-6 6h-228c-3.3 0-6-2.7-6-6z" stroke="#5e5e5e" stroke-width="3" fill="#fff"/><use xlink:href="#q" transform="matrix(1,0,0,1,692.4330708661416,252) translate(86.88888888888889 53.77777777777778)"/><path d="M1030.45 245.8c.86-3.2 4.24-5.8 7.55-5.8h196c3.3 0 5.3 2.6 4.45 5.8l-28.9 108.4c-.86 3.2-4.24 5.8-7.55 5.8h-196c-3.3 0-5.3-2.6-4.45-5.8z" stroke="#5e5e5e" stroke-width="3" fill="#fff"/><use xlink:href="#r" transform="matrix(1,0,0,1,1005,245) translate(65.72722222222222 45.27777777777778)"/><use xlink:href="#s" transform="matrix(1,0,0,1,1005,245) translate(45.05438271604938 71.94444444444446)"/><use xlink:href="#t" transform="matrix(1,0,0,1,1005,245) translate(135.7333950617284 71.94444444444446)"/><path d="M1600 846c0-3.3 2.7-6 6-6h228c3.3 0 6 2.7 6 6v108c0 3.3-2.7 6-6 6h-228c-3.3 0-6-2.7-6-6z" stroke="#5e5e5e" stroke-width="3" fill="#fff"/><use xlink:href="#o" transform="matrix(1,0,0,1,1612,852) translate(45.9320987654321 53.77777777777778)"/><use xlink:href="#u" transform="matrix(1,0,0,1,1612,852) translate(127.84567901234567 53.77777777777778)"/><path d="M622.93 900h40.58" stroke="#5e5e5e" stroke-width="2" fill="none"/><path d="M622.96 901h-1.03v-2h1.03" fill="#5e5e5e"/><path d="M678.78 900l-14.27 4.64v-9.28z" stroke="#5e5e5e" stroke-width="2" fill="#5e5e5e"/><path d="M195.44 823.33c2.76-1.84 7.23-1.84 10 0l110 73.34c2.76 1.84 2.76 4.82 0 6.66l-110 73.34c-2.77 1.84-7.24 1.84-10 0l-110-73.34c-2.77-1.84-2.77-4.82 0-6.66z" stroke="#5e5e5e" stroke-width="3" fill="#fff"/><use xlink:href="#v" transform="matrix(1,0,0,1,85.43307086614163,825) translate(88.98648148148149 78.71527777777777)"/><path d="M60.43 301h-3.86l-2.65.7-1.77 1.8-.72 2.63v687.74l.72 2.64 1.77 1.8 2.65.7H192v2H56.3l-3.4-.92-2.54-2.53-.93-3.42V305.87l.93-3.42 2.53-2.53 3.4-.92h4.13m141 690.33h-2v-8.83h2" fill="#5e5e5e"/><path d="M201.43 979.5v1.02h-2v-1.03M75.7 300l-14.27 4.64v-9.28z" fill="#5e5e5e"/><path d="M78.93 300l-18.5 6v-12m2 9.26L72.46 300l-10.03-3.26" fill="#5e5e5e"/><use xlink:href="#f" transform="matrix(1,0,0,1,191.98862642169718,989.3333333333334) translate(0 14.222222222222223)"/><path d="M795.44 823.33c2.76-1.84 7.23-1.84 10 0l110 73.34c2.76 1.84 2.76 4.82 0 6.66l-110 73.34c-2.77 1.84-7.24 1.84-10 0l-110-73.34c-2.77-1.84-2.77-4.82 0-6.66z" stroke="#5e5e5e" stroke-width="3" fill="#fff"/><use xlink:href="#v" transform="matrix(1,0,0,1,685.4330708661416,825) translate(88.98648148148149 78.71527777777777)"/><path d="M801.43 819.5h-2V812h2m0-21.33h-2V380h2" fill="#5e5e5e"/><path d="M801.43 820.5h-2v-1.02h2M805.07 379h-9.27l4.63-14.26z" fill="#5e5e5e"/><path d="M806.44 380h-12.02l6-18.5m-3.25 16.5h6.52l-3.27-10.03" fill="#5e5e5e"/><use xlink:href="#w" transform="matrix(1,0,0,1,783.5441819772527,790.6666666666667) translate(0 14.222222222222223)"/><path d="M934.55 901h-14.7v-2h14.7m61.4-598h-39.38l-2.65.7-1.77 1.8-.72 2.63v583.2h-2V305.87l.93-3.42 2.53-2.53 3.4-.92h39.65" fill="#5e5e5e"/><path d="M919.88 901h-.9l-.24-2h1.14M1011.2 300l-14.25 4.64v-9.28z" fill="#5e5e5e"/><path d="M1014.45 300l-18.5 6v-12m2 9.26l10.03-3.26-10.03-3.26" fill="#5e5e5e"/><use xlink:href="#f" transform="matrix(1,0,0,1,934.5548677156486,889.3333333333334) translate(0 14.222222222222223)"/><path d="M1115 423.33c2.76-1.84 7.24-1.84 10 0l110 73.34c2.76 1.84 2.76 4.82 0 6.66l-110 73.34c-2.76 1.84-7.24 1.84-10 0l-110-73.34c-2.76-1.84-2.76-4.82 0-6.66z" stroke="#5e5e5e" stroke-width="3" fill="#fff"/><use xlink:href="#x" transform="matrix(1,0,0,1,1005,425) translate(88.98648148148149 78.71527777777777)"/><path d="M1120 362.5V402" stroke="#5e5e5e" stroke-width="2" fill="none"/><path d="M1121 362.53h-2v-1.03h2" fill="#5e5e5e"/><path d="M1120 417.27l-4.64-14.27h9.28z" stroke="#5e5e5e" stroke-width="2" fill="#5e5e5e"/><path d="M1000 846c0-3.3 2.7-6 6-6h228c3.3 0 6 2.7 6 6v108c0 3.3-2.7 6-6 6h-228c-3.3 0-6-2.7-6-6z" stroke="#5e5e5e" stroke-width="3" fill="#fff"/><use xlink:href="#y" transform="matrix(1,0,0,1,1012,852) translate(46.64197530864198 38.77777777777778)"/><use xlink:href="#z" transform="matrix(1,0,0,1,1012,852) translate(65.71604938271605 38.77777777777778)"/><use xlink:href="#A" transform="matrix(1,0,0,1,1012,852) translate(83.80246913580248 38.77777777777778)"/><use xlink:href="#B" transform="matrix(1,0,0,1,1012,852) translate(18 65.44444444444446)"/><use xlink:href="#C" transform="matrix(1,0,0,1,1012,852) translate(86.88888888888889 65.44444444444446)"/><use xlink:href="#D" transform="matrix(1,0,0,1,1012,852) translate(155.77777777777777 65.44444444444446)"/><path d="M1121 620h-2v-9.33h2m0-21.34h-2v-8.83h2" fill="#5e5e5e"/><path d="M1121 579.5v1.02h-2v-1.03M1120 635.26l-4.64-14.26h9.28z" fill="#5e5e5e"/><path d="M1120 638.5l-6-18.5h12m-9.26 2l3.26 10.03 3.26-10.03" fill="#5e5e5e"/><use xlink:href="#f" transform="matrix(1,0,0,1,1111.5555555555557,589.3333333333334) translate(0 14.222222222222223)"/><path d="M1415 823.33c2.76-1.84 7.24-1.84 10 0l110 73.34c2.76 1.84 2.76 4.82 0 6.66l-110 73.34c-2.76 1.84-7.24 1.84-10 0l-110-73.34c-2.76-1.84-2.76-4.82 0-6.66z" stroke="#5e5e5e" stroke-width="3" fill="#fff"/><use xlink:href="#E" transform="matrix(1,0,0,1,1305,825) translate(30.128456790123476 78.71527777777777)"/><use xlink:href="#F" transform="matrix(1,0,0,1,1305,825) translate(48.77043209876545 78.71527777777777)"/><use xlink:href="#G" transform="matrix(1,0,0,1,1305,825) translate(96.54820987654321 78.71527777777777)"/><use xlink:href="#H" transform="matrix(1,0,0,1,1305,825) translate(115.62228395061729 78.71527777777777)"/><use xlink:href="#I" transform="matrix(1,0,0,1,1305,825) translate(142.28895061728394 78.71527777777777)"/><use xlink:href="#J" transform="matrix(1,0,0,1,1305,825) translate(190.06672839506172 78.71527777777777)"/><path d="M1300 446c0-3.3 2.7-6 6-6h228c3.3 0 6 2.7 6 6v108c0 3.3-2.7 6-6 6h-228c-3.3 0-6-2.7-6-6z" stroke="#5e5e5e" stroke-width="3" fill="#fff"/><use xlink:href="#o" transform="matrix(1,0,0,1,1312,452) translate(45.9320987654321 53.77777777777778)"/><use xlink:href="#p" transform="matrix(1,0,0,1,1312,452) translate(127.84567901234567 53.77777777777778)"/><path d="M1241.78 501h-2.36v-2h2.36m38.22 2h-4.44v-2h4.44" fill="#5e5e5e"/><path d="M1239.44 501h-.9l-.24-2h1.14M1295.26 500l-14.26 4.64v-9.28z" fill="#5e5e5e"/><path d="M1298.5 500l-18.5 6v-12m2 9.26l10.03-3.26-10.03-3.26" fill="#5e5e5e"/><use xlink:href="#e" transform="matrix(1,0,0,1,1241.7777777777778,489.3333333333333) translate(0 14.222222222222223)"/><path d="M1242.5 900h40.58" stroke="#5e5e5e" stroke-width="2" fill="none"/><path d="M1242.53 901h-1.03v-2h1.03" fill="#5e5e5e"/><path d="M1298.35 900l-14.27 4.64v-9.28z" stroke="#5e5e5e" stroke-width="2" fill="#5e5e5e"/><path d="M1421 819.5h-2V812h2m0-21.33h-2V580h2" fill="#5e5e5e"/><path d="M1421 820.5h-2v-1.02h2M1424.64 579h-9.28l4.64-14.26z" fill="#5e5e5e"/><path d="M1426 580h-12l6-18.5m-3.26 16.5h6.52l-3.26-10.03" fill="#5e5e5e"/><use xlink:href="#K" transform="matrix(1,0,0,1,1403.111111111111,790.6666666666667) translate(0 14.222222222222223)"/><path d="M1552.9 901h-13.48v-2h13.47m27.1 2h-10.22v-2H1580" fill="#5e5e5e"/><path d="M1539.44 901h-.9l-.24-2h1.14M1595.26 900l-14.26 4.64v-9.28z" fill="#5e5e5e"/><path d="M1598.5 900l-18.5 6v-12m2 9.26l10.03-3.26-10.03-3.26" fill="#5e5e5e"/><g><use xlink:href="#f" transform="matrix(1,0,0,1,1552.888888888889,889.3333333333334) translate(0 14.222222222222223)"/></g><path d="M1792 100c26.5 0 48 17.9 48 40s-21.5 40-48 40h-144c-26.5 0-48-17.9-48-40s21.5-40 48-40z" stroke="#5e5e5e" stroke-width="3" fill="#fff"/><g><use xlink:href="#L" transform="matrix(1,0,0,1,1605,105) translate(93.88888888888889 39.65277777777778)"/></g><path d="M1720 837.5V200" stroke="#5e5e5e" stroke-width="2" fill="none"/><path d="M1721 838.5h-2v-1.03h2" fill="#5e5e5e"/><path d="M1720 184.74l4.64 14.26h-9.28z" stroke="#5e5e5e" stroke-width="2" fill="#5e5e5e"/><path d="M1542.5 500H1714c3.3 0 6-2.7 6-6V200" stroke="#5e5e5e" stroke-width="2" fill="none"/><path d="M1542.53 501h-1.03v-2h1.03" fill="#5e5e5e"/><path d="M1720 184.74l4.64 14.26h-9.28z" stroke="#5e5e5e" stroke-width="2" fill="#5e5e5e"/><path d="M800.43 237.5V216c0-3.3 2.7-6 6-6H1714c3.3 0 6-2.7 6-6v-4" stroke="#5e5e5e" stroke-width="2" fill="none"/><path d="M801.43 238.5h-2v-1.03h2" fill="#5e5e5e"/><path d="M1720 184.74l4.64 14.26h-9.28z" stroke="#5e5e5e" stroke-width="2" fill="#5e5e5e"/><path d="M500.43 237.5V216c0-3.3 2.7-6 6-6H1714c3.3 0 6-2.7 6-6v-4" stroke="#5e5e5e" stroke-width="2" fill="none"/><path d="M501.43 238.5h-2v-1.03h2" fill="#5e5e5e"/><path d="M1720 184.74l4.64 14.26h-9.28z" stroke="#5e5e5e" stroke-width="2" fill="#5e5e5e"/><path d="M1000 646c0-3.3 2.7-6 6-6h228c3.3 0 6 2.7 6 6v108c0 3.3-2.7 6-6 6h-228c-3.3 0-6-2.7-6-6z" stroke="#5e5e5e" stroke-width="3" fill="#fff"/><g><use xlink:href="#M" transform="matrix(1,0,0,1,1012,652) translate(11.888888888888886 38.77777777777778)"/><use xlink:href="#N" transform="matrix(1,0,0,1,1012,652) translate(30.96296296296296 38.77777777777778)"/><use xlink:href="#O" transform="matrix(1,0,0,1,1012,652) translate(49.04938271604938 38.77777777777778)"/><use xlink:href="#P" transform="matrix(1,0,0,1,1012,652) translate(18 65.44444444444446)"/><use xlink:href="#Q" transform="matrix(1,0,0,1,1012,652) translate(86.88888888888889 65.44444444444446)"/><use xlink:href="#R" transform="matrix(1,0,0,1,1012,652) translate(155.77777777777777 65.44444444444446)"/></g><path d="M1120 762.5V820" stroke="#5e5e5e" stroke-width="2" fill="none"/><path d="M1121 762.53h-2v-1.03h2" fill="#5e5e5e"/><path d="M1120 835.26l-4.64-14.26h9.28z" stroke="#5e5e5e" stroke-width="2" fill="#5e5e5e"/><defs><path fill="#333" d="M108-259c20 5 45 13 63 19-8 27-21 51-35 73 28 26 58 56 91 79l-26 26-75-89c-26 39-58 69-98 97L18-64c50-41 89-95 108-166-4-9-15-13-25-18zm149 3c-2-21-21-24-44-30l6-13c26 2 50 9 75 12-12 100 4 224-10 328l-24 3-3-79v-221" id="S"/><path fill="#333" d="M200-299c26 2 50 9 75 12-5 29-4 65-4 100l70-8-4 27h-66c-1 25 0 53-5 74l-25 3c-5-51-1-110-3-165-1-21-20-24-43-30zm-13 49c-12 29-29 53-50 74 25 20 51 35 82 52l-25 22-69-61c-31 30-70 55-110 73l-9-12c58-30 108-74 136-134l-103 7-18-28c47 8 110 6 155-3zm48 186c-59 0-117 2-167 11L55-81c68 8 150 1 216-4-6 37 4 85-8 121l-25 5c-3-33-3-69-3-105" id="T"/><g id="a"><use transform="matrix(0.06172839506172839,0,0,0.06172839506172839,0,0)" xlink:href="#S"/><use transform="matrix(0.06172839506172839,0,0,0.06172839506172839,21.11111111111111,0)" xlink:href="#T"/></g><path fill="#333" d="M75-108c48 3 76-12 76-58s-28-57-76-54v112zm111-58c-1 60-46 78-111 74v78l37 5v9H13v-9l28-5v-208l-31-4v-10c81 1 178-14 176 70" id="U"/><path fill="#333" d="M199-173c-1 36-21 56-49 65l64 94 26 5v9h-57l-66-103H75v89l35 5v9H13v-9l28-5v-208l-31-4v-10c80 4 190-20 189 63zM75-119c50 2 89-1 89-51 0-49-39-52-89-50v101" id="V"/><path fill="#333" d="M10-9l31-5v-208l-31-4v-10h177v57h-11l-6-38c-28-4-63-3-95-3v92h63l6-28h11v73h-11l-6-29H75v96l105-3 10-43h12l-3 62H10v-9" id="W"/><path fill="#333" d="M130-224c-62 0-78 43-78 106 0 64 16 108 78 108s78-44 78-108c0-63-16-106-78-106zM145 3C61 9 15-34 15-118c0-80 37-120 115-120 77 0 115 42 115 120 1 59-21 95-62 112 19 19 30 53 71 46v12c-30 12-67 2-84-19" id="X"/><path fill="#333" d="M134-16c44-1 70-21 70-64v-142l-32-4v-10h80v10l-30 4v141c0 57-33 84-91 85-58 0-93-26-93-82v-144l-30-4v-10h94v10l-30 4c7 82-31 209 62 206" id="Y"/><path fill="#333" d="M77-14l30 5v9H13v-9l30-5v-208l-30-4v-10h94v10l-30 4v208" id="Z"/><path fill="#333" d="M178-68c0 79-95 82-154 59v-54h12c1 35 22 52 60 52 50 0 69-58 33-82-39-24-105-21-105-85 0-67 86-66 142-53v49h-12l-6-29c-31-27-121-7-89 42 28 43 119 24 119 101" id="aa"/><path fill="#333" d="M55 0v-9l38-5v-207c-22 1-53 0-70 4l-5 37H7v-56h207v56h-12l-5-37-70-3v206l37 5v9H55" id="ab"/><g id="c"><use transform="matrix(0.061728395061728385,0,0,0.061728395061728385,0,0)" xlink:href="#U"/><use transform="matrix(0.061728395061728385,0,0,0.061728395061728385,12.345679012345677,0)" xlink:href="#V"/><use transform="matrix(0.061728395061728385,0,0,0.061728395061728385,27.16049382716049,0)" xlink:href="#W"/><use transform="matrix(0.061728395061728385,0,0,0.061728395061728385,40.679012345679006,0)" xlink:href="#V"/><use transform="matrix(0.061728395061728385,0,0,0.061728395061728385,55.49382716049382,0)" xlink:href="#W"/><use transform="matrix(0.061728395061728385,0,0,0.061728395061728385,69.01234567901234,0)" xlink:href="#X"/><use transform="matrix(0.061728395061728385,0,0,0.061728395061728385,85,0)" xlink:href="#Y"/><use transform="matrix(0.061728395061728385,0,0,0.061728395061728385,100.98765432098764,0)" xlink:href="#Z"/><use transform="matrix(0.061728395061728385,0,0,0.061728395061728385,108.33333333333333,0)" xlink:href="#aa"/><use transform="matrix(0.061728395061728385,0,0,0.061728395061728385,120.67901234567901,0)" xlink:href="#Z"/><use transform="matrix(0.061728395061728385,0,0,0.061728395061728385,128.02469135802468,0)" xlink:href="#ab"/><use transform="matrix(0.061728395061728385,0,0,0.061728395061728385,141.5432098765432,0)" xlink:href="#W"/></g><path fill="#333" d="M221-259c-50 0-94 6-141 8l-14-21 118 2 73-8 8 9c-22 25-47 45-77 63 34 10 78 19 118 23l-17 21c-36-14-77-23-115-36-38 21-83 38-129 49l-6-7c72-20 136-58 182-103zM146 27c-25 0-56 11-56-14 0-35 3-66-30-66 5-19 39-1 56-3 2 22-17 71 15 70l125-4c15-1 28-2 38-4l-5 22c-44-3-97-1-143-1zm49-190c-5 15-4 37-4 57l105-5c15-1 27-3 40-5l-3 24c-103-5-221-1-317 7l-9-24c51 6 105 5 161 4 1-29 2-55-27-53 4-19 36-4 54-5" id="ac"/><path fill="#333" d="M30-231c41 7 93 4 130-5l8 8c-10 34-25 61-43 87 23 21 44 46 70 64l-19 17-58-72C93-97 61-68 25-44l-7-6c54-41 97-94 118-166-31 2-66 1-93 7zm204-41c-8 34-3 82-4 123 17-1 33-1 48-4-5-55 21-133-39-136l4-9 62 11c-13 98 6 225-10 327l-14 2-3-179-48 2-6 163-14 2-2-272c-2-21-14-25-36-31l4-9c22 1 39 6 58 10" id="ad"/><path fill="#333" d="M19-231c61-19 146-3 123 76-8 29-32 42-62 48l-3 45H63l-4-58c33-4 57-15 54-56 6-47-42-58-77-39l-6 29H19v-45zM72-37c14 0 21 9 21 21S84 5 72 5 50-2 51-16c0-13 8-21 21-21" id="ae"/><g id="d"><use transform="matrix(0.061728395061728385,0,0,0.061728395061728385,0,0)" xlink:href="#ac"/><use transform="matrix(0.061728395061728385,0,0,0.061728395061728385,21.111111111111107,0)" xlink:href="#ad"/><use transform="matrix(0.061728395061728385,0,0,0.061728395061728385,42.222222222222214,0)" xlink:href="#ae"/></g><path fill="#333" d="M217-299c27 2 49 10 75 12-12 100 4 223-10 328l-24 3-3-174c-26 0-54 2-75 7l-13-27c29 3 57 3 88 2v-108c-2-21-21-24-44-30zM31-235c51 7 114 4 161-4l11 10C172-142 111-76 33-35L23-45c62-38 111-95 136-169-37 2-77 1-110 7" id="af"/><path fill="#333" d="M204-253c-13 29-29 53-51 75 26 19 51 33 81 49l-25 22-68-59c-31 30-71 56-111 74l-9-12c59-30 109-74 137-135l-102 8-19-28c49 6 109 7 155-4zm54-3c-3-20-21-24-44-30l6-13c26 2 50 9 75 12-10 63 3 146-10 212 0 0-26 12-26-7zM191-74c-5-10-12-11-24-18l8-11c20 4 44 12 61 18-7 13-15 25-24 36l56 34 58 28-25 24-100-73C171-3 128 27 86 45l-9-12c48-25 92-58 114-107" id="ag"/><g id="e"><use transform="matrix(0.04938271604938272,0,0,0.04938271604938272,0,0)" xlink:href="#af"/><use transform="matrix(0.04938271604938272,0,0,0.04938271604938272,16.88888888888889,0)" xlink:href="#ag"/></g><path fill="#333" d="M191-228c-15 24-30 43-50 62 26 19 50 32 81 45l-24 23-70-56c-32 28-71 50-111 68L7-97c56-26 104-68 136-118l-100 8-19-28c47 8 112 6 155-4zM57-278c34 6 76 5 109-1l-6 23-88 3zM85-87c62 9 125 5 187-1l-8 88c4 0 8-1 12-1l-6 26c-39-4-91-2-133-1l-3 13-22 4c-6-29-7-58-9-90-1-17-9-22-24-25zm150 22l-99 2 2 69 96-4zm-35-234c26 2 50 9 75 12-7 31-3 71-4 108l69-8-4 27h-65c-1 22-2 46-6 65l-25 4-2-165c-2-21-21-24-44-30" id="ah"/><use transform="matrix(0.04938271604938272,0,0,0.04938271604938272,0,0)" xlink:href="#ah" id="f"/><path fill="#333" d="M152 0h-7L59-203v189l32 5v9H10v-9l31-5v-208l-31-4v-10h72l76 180 84-180h68v10l-31 4v208l31 5v9h-96v-9l32-5v-189" id="ai"/><path fill="#333" d="M32-163c41-10 102-14 102 39v112c8 3 24-2 21 12h-45l-4-17C83 13 3 13 13-46c-2-50 45-50 92-51 4-36-5-70-42-56-6 2-12 4-16 6-4 7 0 23-15 20v-36zM42-47c0 41 41 33 63 22v-59c-34 1-63-1-63 37" id="aj"/><path fill="#333" d="M60-80l68-73c-7-3-20 0-17-12h58c3 13-13 9-20 12l-47 48 60 93c7 3 21-1 18 12h-68c-3-12 9-9 15-12L82-83 60-60v48c7 3 21-1 18 12H10v-8l21-4v-226l-24-4v-8h53v170" id="ak"/><path fill="#333" d="M84-170c49 0 66 33 63 87H46c-8 60 38 80 95 63v10C128-2 108 4 88 4 34 4 14-29 14-84c-1-54 22-86 70-86zm33 73c12-57-57-82-69-24-1 7-2 15-2 24h71" id="al"/><path fill="#333" d="M103-236c-39-15-35 32-34 71h44v15H69v136l35 6v8H15v-8l25-6v-136H11v-9l29-7c-6-59 23-100 80-84v36c-15 2-12-14-17-22" id="am"/><path fill="#333" d="M47-200c-23 0-25-39 0-38 13 0 18 7 20 19-1 11-8 19-20 19zM65-12l28 4v8H8v-8l28-4v-141l-24-4v-8h53v153" id="an"/><path fill="#333" d="M65-12l28 4v8H7v-8l28-4v-226l-28-4v-8h58v238" id="ao"/><path fill="#333" d="M98-216c0-11-20-9-12-20l32 6c-2 4-4 8-4 15 31 5 55 22 61 52l42-1c-4-47 16-107-35-109l4-9c23 1 39 6 58 10-12 90 4 205-10 300l-14 2-3-182c-14 1-28 3-41 6-5 37-32 58-73 58-43 0-75-22-75-64 0-39 30-61 70-64zm5 113c31 0 51-19 51-50s-20-51-51-51-51 20-51 51 21 50 51 50zm176-154c-2-22-17-25-40-32l4-9 63 11c-12 99 4 223-10 327l-14 2-3-76v-223" id="ap"/><path fill="#333" d="M162-241c-9 27-20 54-35 76 27 28 57 54 89 79l-21 20-75-89c-27 39-57 69-96 97l-7-7c51-41 93-94 110-167-3-10-16-12-25-18l6-7c20 6 35 8 54 16zm103 79c-29 1-58 1-83 7l-9-21c25 4 63 2 92 1v-82c-2-22-21-25-44-32l4-9c23 2 49 7 68 11-12 98 4 223-10 327l-15 2" id="aq"/><g id="g"><use transform="matrix(0.06172839506172839,0,0,0.06172839506172839,0,0)" xlink:href="#ai"/><use transform="matrix(0.06172839506172839,0,0,0.06172839506172839,19.753086419753085,0)" xlink:href="#aj"/><use transform="matrix(0.06172839506172839,0,0,0.06172839506172839,29.5679012345679,0)" xlink:href="#ak"/><use transform="matrix(0.06172839506172839,0,0,0.06172839506172839,40.67901234567901,0)" xlink:href="#al"/><use transform="matrix(0.06172839506172839,0,0,0.06172839506172839,50.49382716049383,0)" xlink:href="#am"/><use transform="matrix(0.06172839506172839,0,0,0.06172839506172839,57.839506172839506,0)" xlink:href="#an"/><use transform="matrix(0.06172839506172839,0,0,0.06172839506172839,64.01234567901234,0)" xlink:href="#ao"/><use transform="matrix(0.06172839506172839,0,0,0.06172839506172839,70.18518518518518,0)" xlink:href="#al"/><use transform="matrix(0.06172839506172839,0,0,0.06172839506172839,79.99999999999999,0)" xlink:href="#ap"/><use transform="matrix(0.06172839506172839,0,0,0.06172839506172839,101.1111111111111,0)" xlink:href="#aq"/></g><g id="h"><use transform="matrix(0.06172839506172839,0,0,0.06172839506172839,0,0)" xlink:href="#U"/><use transform="matrix(0.06172839506172839,0,0,0.06172839506172839,12.345679012345679,0)" xlink:href="#V"/><use transform="matrix(0.06172839506172839,0,0,0.06172839506172839,27.160493827160494,0)" xlink:href="#W"/><use transform="matrix(0.06172839506172839,0,0,0.06172839506172839,40.67901234567901,0)" xlink:href="#V"/><use transform="matrix(0.06172839506172839,0,0,0.06172839506172839,55.49382716049382,0)" xlink:href="#W"/><use transform="matrix(0.06172839506172839,0,0,0.06172839506172839,69.01234567901234,0)" xlink:href="#X"/><use transform="matrix(0.06172839506172839,0,0,0.06172839506172839,85,0)" xlink:href="#Y"/><use transform="matrix(0.06172839506172839,0,0,0.06172839506172839,100.98765432098766,0)" xlink:href="#Z"/><use transform="matrix(0.06172839506172839,0,0,0.06172839506172839,108.33333333333334,0)" xlink:href="#aa"/><use transform="matrix(0.06172839506172839,0,0,0.06172839506172839,120.67901234567903,0)" xlink:href="#Z"/><use transform="matrix(0.06172839506172839,0,0,0.06172839506172839,128.0246913580247,0)" xlink:href="#ab"/><use transform="matrix(0.06172839506172839,0,0,0.06172839506172839,141.54320987654322,0)" xlink:href="#W"/></g><path fill="#333" d="M130-238l-5 15c39 6 72 28 72 70 0 45-35 70-83 70-47 0-82-24-82-70 0-44 33-67 77-70-1-9-6-11-15-14 4-13 24-1 36-1zM115-99c35 0 57-22 57-55s-22-56-57-56c-34 0-57 22-57 56s23 55 57 55zm152-158c-1-22-21-25-44-32l4-9c22 2 48 7 67 11-13 98 6 225-10 327l-14 2c-7-92 1-201-3-299" id="ar"/><path fill="#333" d="M76-76c61 8 131 4 193-1L258 5l14-2-5 20c-43-4-101-2-147-1 0 5-1 11-2 15l-14 2-8-80c0-17-9-23-24-26zm165 17l-121 1 1 67 118-3zM84-176c2-27-2-43-25-45l4-8c53 6 122 3 176 0l1-39-137 4-27 4-13-22c62 8 143 3 207 0l-10 51h10l-2 17c-49-4-111 0-159 1 1 17-9 41 14 40l158-9-5 22-174 1c-12 1-19-6-18-17zM7-127l243 1 86-8-3 23-290 5-27 3" id="as"/><path fill="#333" d="M117-262c4-14 25 0 37 0l-5 14c37 5 68 24 68 64 0 43-36 64-80 64s-78-22-78-64 33-62 74-65c-1-8-8-9-16-13zm21 127c32 0 54-18 54-51 0-31-22-51-54-51s-54 20-54 51c0 32 22 51 54 51zm94-163c22 2 48 7 67 11-10 101 6 226-10 327l-14 2c-5-35-2-81-3-121L131-55 38-45 25-68c84 10 173-7 247-21v-168c-3-21-21-25-44-32" id="at"/><g id="i"><use transform="matrix(0.06172839506172839,0,0,0.06172839506172839,0,0)" xlink:href="#ar"/><use transform="matrix(0.06172839506172839,0,0,0.06172839506172839,21.11111111111111,0)" xlink:href="#as"/><use transform="matrix(0.06172839506172839,0,0,0.06172839506172839,42.22222222222222,0)" xlink:href="#at"/></g><path fill="#333" d="M81-9v9H4v-9l26-5 81-224h33l83 224 30 5v9h-99v-9l31-5-23-68H73L49-14zm38-203L78-98h82" id="au"/><path fill="#333" d="M52-115c0 90 69 126 140 93v-67l-30-5v-9h87v9l-23 5v77c-27 8-56 16-90 16C59 2 15-37 15-115c-1-82 41-123 122-123 31 0 59 4 83 10v51h-12l-5-29c-15-12-38-18-65-18-66-1-86 42-86 109" id="av"/><g id="j"><use transform="matrix(0.06172839506172839,0,0,0.06172839506172839,0,0)" xlink:href="#ab"/><use transform="matrix(0.06172839506172839,0,0,0.06172839506172839,11.728395061728394,0)" xlink:href="#au"/><use transform="matrix(0.06172839506172839,0,0,0.06172839506172839,27.716049382716047,0)" xlink:href="#V"/><use transform="matrix(0.06172839506172839,0,0,0.06172839506172839,42.53086419753086,0)" xlink:href="#av"/><use transform="matrix(0.06172839506172839,0,0,0.06172839506172839,58.51851851851851,0)" xlink:href="#W"/><use transform="matrix(0.06172839506172839,0,0,0.06172839506172839,72.03703703703702,0)" xlink:href="#ab"/></g><path fill="#333" d="M85-86c62 8 121 3 183-2L258 5l13-2-5 20c-41-4-93-2-136-1 0 6-2 11-3 15l-13 2c-6-26-9-60-9-90 0-19-10-22-24-26zm155 16l-111 2 2 77c35 1 76-1 108-3zm-35-228c22 2 48 7 67 11-5 26-2 60-3 90 23 0 48-3 70-7l-4 22h-66l-6 80-16 2c-3-13-2-35-2-52-48 19-114 33-172 42-69 9 13-127-60-134l4-9c52 8 122 4 171-4l-4 20c-39-2-83 1-116 3v41c42 3 83-3 119-8l-4 21-115 2c2 18-8 50 14 47 57-7 116-15 163-32v-94c-3-21-21-25-44-32" id="aw"/><path fill="#333" d="M91-265l52 15c-8 24-18 44-29 62 21 24 47 47 75 65l-20 17-62-71c-24 35-55 62-91 85l-5-7c44-36 84-77 98-141-3-10-15-12-24-18zM271-64L94-54 83-76c68 7 147 0 214-4-6 35 3 81-8 114l-15 2c-5-28-3-66-3-100zm-40-208c-3 25-3 53-3 81 17 0 32 0 47-3 0-47 9-92-39-95l3-9 63 11c-11 56 3 136-11 194l-15 2-1-87c-17 0-31 0-47 2 1 32 0 63-7 87l-14 2c-3-49-2-103-2-155-1-22-14-25-36-31 9-19 43 0 62 1" id="ax"/><g id="k"><use transform="matrix(0.06172839506172839,0,0,0.06172839506172839,0,0)" xlink:href="#aw"/><use transform="matrix(0.06172839506172839,0,0,0.06172839506172839,21.11111111111111,0)" xlink:href="#ax"/></g><g id="l"><use transform="matrix(0.06172839506172839,0,0,0.06172839506172839,0,0)" xlink:href="#ab"/><use transform="matrix(0.06172839506172839,0,0,0.06172839506172839,11.728395061728394,0)" xlink:href="#au"/><use transform="matrix(0.06172839506172839,0,0,0.06172839506172839,27.716049382716047,0)" xlink:href="#V"/><use transform="matrix(0.06172839506172839,0,0,0.06172839506172839,42.53086419753086,0)" xlink:href="#av"/><use transform="matrix(0.06172839506172839,0,0,0.06172839506172839,58.51851851851851,0)" xlink:href="#W"/><use transform="matrix(0.06172839506172839,0,0,0.06172839506172839,72.03703703703702,0)" xlink:href="#ab"/></g><path fill="#333" d="M84-95c-1 9 5 13 14 12 55-5 115-19 161-34v-140c-3-21-21-25-44-32l4-9c22 2 48 7 67 11-10 101 6 226-10 327l-14 2c-6-43-2-100-3-149-48 20-112 37-169 46-23 4-28-5-30-27-5-50 21-131-30-135l3-8c53 7 118 3 166-5l-4 21c-39-2-78 1-111 3v117" id="ay"/><path fill="#333" d="M83-92c-58 8-6-87-54-84 14-18 65 2 103-7l3-52c-32-2-60 5-91 7l-11-22c38 9 86 4 130 0l-12 65 7-1-2 17c-32-3-51 0-79 2 2 21-10 56 13 56 33 0 62-13 92-21v10c-32 13-62 25-99 30zm192-165c-1-22-16-25-39-32l4-9 62 11c-9 59 4 140-11 197l-14 2zm-4 198c-62-1-118 5-175 9L85-72c66 8 149 1 212-4-5 34 2 79-8 110l-15 3c-4-27-3-64-3-96zm-33-213c-11 52 4 132-11 185l-14 2-2-88c-14 1-27 3-40 6l-10-20c13 3 33 2 50 2-1-43 10-86-35-88l4-9c23 1 39 6 58 10" id="az"/><path fill="#333" d="M98-166c4 23-12 61 18 60l125-5c15-1 28-3 39-5l-4 22-84-1v67l98-5c15-1 29-3 42-5l-4 23L50-9 24-6 14-31l154 4v-67l-74 2c-14 1-19-7-19-20 0-51 22-134-31-138l4-8c71 8 162 5 230-3l-4 22c-55-4-122-3-176 1v59l173-10-5 22c-53-3-115-2-168 1" id="aA"/><path fill="#333" d="M86-144c2 28-14 74 14 74 57 0 118-16 165-31v-156c-2-22-21-25-44-32l4-9c23 2 49 7 68 11-12 98 4 223-10 327l-15 2-3-133C215-74 152-61 93-51c-63 11 0-95-56-102l3-8c44 5 85 5 127 1l4-69c-39-2-82 2-118 7l-12-22c48 7 110 6 159 0-6 26-9 55-13 83l13-2-2 17c-44-2-77 1-112 2" id="aB"/><g id="m"><use transform="matrix(0.06172839506172839,0,0,0.06172839506172839,0,0)" xlink:href="#ay"/><use transform="matrix(0.06172839506172839,0,0,0.06172839506172839,21.11111111111111,0)" xlink:href="#az"/><use transform="matrix(0.06172839506172839,0,0,0.06172839506172839,42.22222222222222,0)" xlink:href="#aA"/><use transform="matrix(0.06172839506172839,0,0,0.06172839506172839,63.33333333333333,0)" xlink:href="#aB"/><use transform="matrix(0.06172839506172839,0,0,0.06172839506172839,84.44444444444444,0)" xlink:href="#ap"/><use transform="matrix(0.06172839506172839,0,0,0.06172839506172839,105.55555555555556,0)" xlink:href="#aq"/></g><path fill="#333" d="M179-198c-10 30-7 73-10 110l75-12v-157c-2-22-21-25-44-32 10-20 52 2 72 2-8 36-2 88-4 131 23 0 49-3 71-7l-3 22h-68l-3 161c-1 8-2 15-3 20l-15 2-3-132C175-73 101-68 28-59L14-82c18 3 41 4 62 3l-6-83c1-18-9-24-25-26l2-9c16 1 29 1 44 4-3 37 4 75 5 112l53-5 3-83c0-20-5-23-25-26l4-9c15 2 33 2 48 6zM19-234c63 10 133 0 192-8l-6 21c-62 0-119 5-176 9" id="aC"/><path fill="#333" d="M133-266l-4 13c36 5 66 23 66 61 0 42-33 62-78 62-44 0-77-21-77-62 0-38 31-60 72-61 1-11-21-10-11-19zm-15 122c31 0 52-18 52-49s-22-50-52-50c-32 0-53 19-53 50 0 32 22 49 53 49zm106-154c23 2 49 7 67 11-8 51 3 118-9 170l-15 2c-6-42-1-95-3-142-1-22-21-25-44-32zM126 15c2-29-1-49-25-52l3-8c48 5 105 5 154 1l1-42-141 7-12-22c52 10 125 4 182 0l-10 55c4 0 7-1 10-1l-2 17c-45-3-93 1-136 2 2 18-11 48 14 46 46-4 100-1 140-9l-5 22-156 2c-12 1-17-7-17-18" id="aD"/><g id="n"><use transform="matrix(0.06172839506172839,0,0,0.06172839506172839,0,0)" xlink:href="#aC"/><use transform="matrix(0.06172839506172839,0,0,0.06172839506172839,21.11111111111111,0)" xlink:href="#aD"/></g><path fill="#333" d="M52-115c0 93 80 130 150 87l7-35h11l-1 55c-23 7-52 12-83 12C60 4 19-37 15-115c-5-113 97-141 201-114l1 51h-12l-5-30c-15-9-39-16-62-16-66 0-86 41-86 109" id="aE"/><g id="o"><use transform="matrix(0.06172839506172839,0,0,0.06172839506172839,0,0)" xlink:href="#V"/><use transform="matrix(0.06172839506172839,0,0,0.06172839506172839,14.814814814814813,0)" xlink:href="#W"/><use transform="matrix(0.06172839506172839,0,0,0.06172839506172839,28.33333333333333,0)" xlink:href="#aE"/><use transform="matrix(0.06172839506172839,0,0,0.06172839506172839,43.14814814814814,0)" xlink:href="#Z"/><use transform="matrix(0.06172839506172839,0,0,0.06172839506172839,50.493827160493815,0)" xlink:href="#U"/><use transform="matrix(0.06172839506172839,0,0,0.06172839506172839,62.83950617283949,0)" xlink:href="#W"/></g><path fill="#333" d="M167-261c-9 22-18 39-31 57 25 24 52 41 83 59l-21 18-69-67c-27 34-67 62-105 83l-6-7c49-33 96-72 115-134-4-10-16-11-26-18l6-7c20 6 35 8 54 16zm58-37c23 2 49 7 67 11-8 51 3 119-9 171l-15 2c-6-42 0-96-3-143-1-22-21-25-44-32zM126 15c2-29-1-49-25-52l3-8c48 6 106 3 155 0l1-41c-47-2-100 0-142 7l-12-22c55 9 126 4 183 0-4 17-7 36-10 55 4 0 7-1 10-1l-2 17-137 2c2 18-11 48 14 46 47-4 100-1 141-9l-5 22-157 2c-12 1-17-7-17-18" id="aF"/><path fill="#333" d="M237-272c-7 28-3 70-4 105 17 0 31 1 46-2v-88c-1-22-16-25-39-32l4-9 62 11c-11 60 4 146-11 208l-14 2-2-77-46 2c0 22-4 37-7 55l-14 2c-3-47-1-98-2-147 0-22-13-25-35-31l4-9c22 1 39 6 58 10zM19-225c57 7 126 2 179-6l-4 20-164 7zm45-41c27 8 64 7 95 1l-5 16-79 4zm53 74c37 0 65 18 65 53 0 34-29 52-65 52s-66-18-66-52c0-36 29-53 66-53zm0 11c-23-1-41 18-41 40 1 24 16 41 41 41 26 0 42-17 42-41s-17-39-42-40zm98 111c-1-7-6-10-15-11 4-13 24-1 35-1l-4 12c33 5 62 20 62 54 0 37-32 55-72 55-39 0-71-19-71-55 0-34 30-52 65-54zm6 96c27 0 47-15 47-43s-20-43-47-43-47 16-47 43 20 43 47 43" id="aG"/><g id="p"><use transform="matrix(0.06172839506172839,0,0,0.06172839506172839,0,0)" xlink:href="#aF"/><use transform="matrix(0.06172839506172839,0,0,0.06172839506172839,21.11111111111111,0)" xlink:href="#aG"/></g><path fill="#333" d="M66-277c59 9 136 3 191-5l8 8c-20 23-45 44-73 60 34 12 73 18 114 23l-17 21c-36-14-75-24-112-37-38 21-85 38-132 47l-6-7c71-20 136-52 182-97l-141 9zM7-140c104 9 230 5 329-7l-3 24-142-1c-1 14 0 29-3 41 37 5 67 22 67 60 0 42-34 62-77 62s-76-21-76-62c0-38 30-55 66-60-3-11-2-27-2-41l-150 8zM178 24c31 0 52-17 52-48 0-30-22-48-52-48-29 0-51 17-51 48 0 32 22 48 51 48" id="aH"/><path fill="#333" d="M204-298c22 2 48 7 67 11-6 35-2 81-3 121 22-1 47-4 69-8l-3 22h-66l-6 107-16 2-2-99c-49 18-110 34-169 43C6-88 88-227 15-234l4-9c52 8 120 4 169-4l-4 21c-38-3-81-1-114 2v92c2 22 30 10 50 8 44-4 87-18 124-29v-104c-3-21-21-25-44-32zM163 27c-22-1-53 11-53-14 1-38 5-75-31-76 5-18 37-1 56-2l-1 67c-2 21 31 9 48 12L294 4l-4 22" id="aI"/><g id="q"><use transform="matrix(0.06172839506172839,0,0,0.06172839506172839,0,0)" xlink:href="#aH"/><use transform="matrix(0.06172839506172839,0,0,0.06172839506172839,21.11111111111111,0)" xlink:href="#aI"/></g><g id="r"><use transform="matrix(0.06172839506172839,0,0,0.06172839506172839,0,0)" xlink:href="#ay"/><use transform="matrix(0.06172839506172839,0,0,0.06172839506172839,21.11111111111111,0)" xlink:href="#az"/><use transform="matrix(0.06172839506172839,0,0,0.06172839506172839,42.22222222222222,0)" xlink:href="#aA"/><use transform="matrix(0.06172839506172839,0,0,0.06172839506172839,63.33333333333333,0)" xlink:href="#aB"/><use transform="matrix(0.06172839506172839,0,0,0.06172839506172839,84.44444444444444,0)" xlink:href="#ap"/></g><g id="s"><use transform="matrix(0.06172839506172839,0,0,0.06172839506172839,0,0)" xlink:href="#ab"/><use transform="matrix(0.06172839506172839,0,0,0.06172839506172839,11.728395061728394,0)" xlink:href="#au"/><use transform="matrix(0.06172839506172839,0,0,0.06172839506172839,27.716049382716047,0)" xlink:href="#V"/><use transform="matrix(0.06172839506172839,0,0,0.06172839506172839,42.53086419753086,0)" xlink:href="#av"/><use transform="matrix(0.06172839506172839,0,0,0.06172839506172839,58.51851851851851,0)" xlink:href="#W"/><use transform="matrix(0.06172839506172839,0,0,0.06172839506172839,72.03703703703702,0)" xlink:href="#ab"/></g><g id="t"><use transform="matrix(0.06172839506172839,0,0,0.06172839506172839,0,0)" xlink:href="#aC"/><use transform="matrix(0.06172839506172839,0,0,0.06172839506172839,21.11111111111111,0)" xlink:href="#aD"/></g><path fill="#333" d="M63-277c64 9 139 2 205-1l-11 98 13-2-4 20c-46-4-108-2-157-1l-2 11-14 2c-6-28-6-62-10-92 1-19-10-22-24-26zm177 17l-133 2 3 82 128-3zM10-115l283-1c15-1 28-3 41-5l-4 23-139-1-6 138-16 2-2-139-148 8" id="aJ"/><path fill="#333" d="M165-241c-8 27-21 50-34 73 28 28 58 55 92 80l-21 20-78-89c-25 38-58 72-98 99l-7-7c51-41 93-94 111-167-4-10-16-11-26-18l6-7c22 6 35 7 55 16zm99-16c-3-21-21-25-44-32l4-9c22 2 48 7 67 11-13 98 5 224-10 327l-15 2" id="aK"/><g id="u"><use transform="matrix(0.06172839506172839,0,0,0.06172839506172839,0,0)" xlink:href="#aJ"/><use transform="matrix(0.06172839506172839,0,0,0.06172839506172839,21.11111111111111,0)" xlink:href="#aK"/></g><path fill="#333" d="M133-275l55 7c-10 40 2 102-10 145-9 2-17 4-16-10-32-1-68 1-100 2-1 5-1 9-2 12l-14 2c-5-31-3-72-3-108 0-20-12-24-28-27l3-9 52 7c-3 11-5 25-4 40 34 0 62-2 95-5 4-31-6-45-32-47zM64-144l97-4v-55c-32-1-64 0-95 3zm41 159c0-30 1-48-25-51l4-8c48 6 106 3 155 0l1-40c-48-2-98 2-142 7L86-99c55 8 126 5 183 0l-10 54 10-1-2 17-137 2c2 18-11 47 14 45 47-4 100-1 141-9l-5 22-157 2c-12 1-18-7-18-18zm100-313c22 2 48 7 67 11-5 23-3 53-3 81 23-1 47-5 70-8l-4 22h-66l-6 80-16 2c-5-44 1-99-2-147-1-22-21-25-44-32" id="aL"/><path fill="#333" d="M225-298c23 2 49 7 67 11-9 74 4 167-9 242l-15 2c-4-21-3-50-3-76l-95 7-9-21c29 7 70 2 104 1v-59c-29 1-60 2-85 7l-6-13C138-145 90-99 30-71l-6-7c61-35 113-88 140-156-37 2-78 2-111 8l-14-23c46 7 108 5 150-4l9 5c-5 17-13 29-21 45 29 2 60 2 88-1v-53c-3-21-21-25-44-32zM176 27c-22-1-53 11-53-14 1-38 5-75-31-76 5-18 37-1 56-2l-1 67c-2 21 31 9 48 12l112-9-4 21" id="aM"/><g id="v"><use transform="matrix(0.061728395061728385,0,0,0.061728395061728385,0,0)" xlink:href="#aL"/><use transform="matrix(0.061728395061728385,0,0,0.061728395061728385,21.111111111111107,0)" xlink:href="#aM"/><use transform="matrix(0.061728395061728385,0,0,0.061728395061728385,42.222222222222214,0)" xlink:href="#ae"/></g><g id="w"><use transform="matrix(0.04938271604938272,0,0,0.04938271604938272,0,0)" xlink:href="#af"/><use transform="matrix(0.04938271604938272,0,0,0.04938271604938272,16.88888888888889,0)" xlink:href="#ag"/></g><g id="x"><use transform="matrix(0.061728395061728385,0,0,0.061728395061728385,0,0)" xlink:href="#ac"/><use transform="matrix(0.061728395061728385,0,0,0.061728395061728385,21.111111111111107,0)" xlink:href="#ad"/><use transform="matrix(0.061728395061728385,0,0,0.061728395061728385,42.222222222222214,0)" xlink:href="#ae"/></g><path fill="#333" d="M175-184c0-38-38-37-76-36l-16 87c51 2 92 0 92-51zm-2 113c0-47-45-47-93-46L63-16c56 3 110 5 110-55zm37-1C212 20 96-1 3 0l2-9 23-5 37-208-29-4 1-10c70 5 175-20 175 50 0 39-26 55-59 61 34 3 56 17 57 53" id="aN"/><use transform="matrix(0.06172839506172839,0,0,0.06172839506172839,0,0)" xlink:href="#aN" id="y"/><path fill="#333" d="M185-92v17H18v-17h167zm0-73v18H18v-18h167" id="aO"/><use transform="matrix(0.06172839506172839,0,0,0.06172839506172839,0,0)" xlink:href="#aO" id="z"/><g id="A"><use transform="matrix(0.06172839506172839,0,0,0.06172839506172839,0,0)" xlink:href="#ab"/><use transform="matrix(0.06172839506172839,0,0,0.06172839506172839,11.728395061728394,0)" xlink:href="#au"/><use transform="matrix(0.06172839506172839,0,0,0.06172839506172839,27.716049382716047,0)" xlink:href="#V"/><use transform="matrix(0.06172839506172839,0,0,0.06172839506172839,42.53086419753086,0)" xlink:href="#av"/><use transform="matrix(0.06172839506172839,0,0,0.06172839506172839,58.51851851851851,0)" xlink:href="#W"/><use transform="matrix(0.06172839506172839,0,0,0.06172839506172839,72.03703703703702,0)" xlink:href="#ab"/></g><g id="B"><use transform="matrix(0.06172839506172839,0,0,0.06172839506172839,0,0)" xlink:href="#aC"/><use transform="matrix(0.06172839506172839,0,0,0.06172839506172839,21.11111111111111,0)" xlink:href="#aD"/><use transform="matrix(0.06172839506172839,0,0,0.06172839506172839,42.22222222222222,0)" xlink:href="#at"/></g><path fill="#333" d="M204-276c-7 14-18 26-28 37 38 21 84 39 132 54l-21 20-119-65c-34 34-81 60-129 78l-7-8c55-24 109-56 135-109-5-9-15-11-25-18 13-17 43 8 62 11zM10-120c103 10 225 3 324-6l-4 23-139-1-6 143-16 2-2-145-148 9" id="aP"/><path fill="#333" d="M295-287c-11 58 3 139-10 201l-15 2c-4-29-3-65-3-98-25 1-49 3-70 7l-10-20c22 4 55 2 80 1v-63c-3-21-21-25-44-32l4-9c23 2 49 7 68 11zM211-79c-1-8-8-9-16-12 5-14 24-1 36 0l-4 13c35 4 64 21 64 58 0 39-32 59-74 59-41 0-73-19-73-59 0-38 30-55 67-59zm6 103c28 0 48-17 48-46 0-28-19-46-48-46-30 0-49 18-49 46 0 29 20 46 49 46zM42-256c43 7 105 4 146-4l8 8c-12 29-29 52-49 74 24 20 47 34 77 51l-20 18-65-60c-30 31-68 58-108 75l-7-8c60-29 111-78 137-139-26 1-54 0-78 4-10 0-19 2-27 3" id="aQ"/><path fill="#333" d="M22-101c35 6 77 3 113 0v-52c-26-1-67 12-66-18 1-39 5-76-30-78l4-8c54 10 123 5 176-2l-5 21-121 1v58c10 32 92 3 130 3l-5 22c-19-1-40-1-59 0v51l108-16v-138c-3-21-21-25-44-32l4-9c22 2 48 7 67 11-12 73 4 172-9 250l-16 2-2-74L36-78zM178 27c-24 0-55 11-55-14 0-35 1-60-31-61 6-19 39-2 57-3-3 14-2 36-2 53-1 21 32 12 50 12 39 0 83-3 118-8l-4 22c-42-3-90-1-133-1" id="aR"/><g id="C"><use transform="matrix(0.06172839506172839,0,0,0.06172839506172839,0,0)" xlink:href="#aP"/><use transform="matrix(0.06172839506172839,0,0,0.06172839506172839,21.11111111111111,0)" xlink:href="#aQ"/><use transform="matrix(0.06172839506172839,0,0,0.06172839506172839,42.22222222222222,0)" xlink:href="#aR"/></g><path fill="#333" d="M101 15c2-29 0-51-26-52l4-8c51 4 109 4 159 0l1-43c-48-2-102 1-146 7l-12-22c55 9 129 4 187 0-5 16-7 39-11 57 4 0 7-1 10-1l-2 16c-46-3-97 1-141 2 3 18-11 50 15 47 47-5 102 0 144-9l-5 22-160 2c-12 1-17-7-17-18zm102-313c22 2 48 7 67 11-5 24-3 55-3 83 22-1 49-4 71-8l-3 22h-68l-6 74-16 2-2-59c-47 18-107 33-163 43-67 11 13-121-65-119l4-9c23 0 39 3 59 6-4 27-4 58-3 89 1 21 31 9 49 7 41-4 84-16 119-28v-73c-3-21-21-25-44-32" id="aS"/><path fill="#333" d="M217-233c-10 33-25 62-42 89 18 23 41 44 64 61l-20 18-51-68c-21 32-50 60-80 82l-6-5c12-10 24-22 35-35l-36-44c-20 25-44 48-70 66l-7-5c46-36 82-88 101-146-25 0-47 3-69 6l-11-20c33 5 73 5 101-5 18 15 59 4 83-1zm-30 11c-21 1-41 2-58 6-10 27-25 51-41 72 13 15 26 26 43 36 25-33 44-70 56-114zm94-65c-8 38-2 92-4 138l68-7-3 22h-65l-6 174-15 2-3-76v-223c-3-21-21-25-44-32l4-9c23 2 49 7 68 11" id="aT"/><g id="D"><use transform="matrix(0.06172839506172839,0,0,0.06172839506172839,0,0)" xlink:href="#aS"/><use transform="matrix(0.06172839506172839,0,0,0.06172839506172839,21.11111111111111,0)" xlink:href="#aT"/></g><path fill="#333" d="M46-9l-1 9h-65C-21-13-7-11 2-14l120-224h33l44 224 22 5-2 9h-83l2-9 25-5-11-68H59L23-14zm81-203L67-98h82" id="aU"/><use transform="matrix(0.061728395061728385,0,0,0.061728395061728385,0,0)" xlink:href="#aU" id="E"/><path fill="#333" d="M211-273c21 2 36 3 56 8-9 51 4 120-9 171-10 2-19 4-16-12h-54v77l102-5c15-1 29-3 42-5l-4 23-251 4-53 4-10-24 151 4v-77c-21 0-42 0-61 2l-2 13-15 2c-5-40-1-91-2-135-1-21-10-22-30-27l4-9 52 7c-5 14-4 35-4 54l133-5c2-35 1-59-33-61zm29 152v-66l-133 2c-1 23 2 49-2 68" id="aV"/><path fill="#333" d="M74-95c-1 9 5 13 14 12 54-5 111-18 155-34v-140c-3-21-21-25-44-32l4-9c22 2 48 7 67 11-6 39-2 88-3 132 22-1 49-4 71-8l-3 22h-68l-6 181-15 2-3-148-80 26c-33 6-75 26-106 15-15-27-7-85-7-125 0-24-13-27-31-33l4-8c53 7 118 3 166-5l-5 21c-39-2-78 1-110 3v117" id="aW"/><g id="F"><use transform="matrix(0.061728395061728385,0,0,0.061728395061728385,0,0)" xlink:href="#aV"/><use transform="matrix(0.061728395061728385,0,0,0.061728395061728385,21.111111111111107,0)" xlink:href="#aW"/></g><use transform="matrix(0.061728395061728385,0,0,0.061728395061728385,0,0)" xlink:href="#aN" id="G"/><path fill="#333" d="M206-298c22 2 48 7 67 11-6 42-2 96-3 144 23-1 47-4 70-8l-4 22h-66l-6 169-15 2-3-76v-223c-3-21-21-25-44-32zM26-233c53 0 110 6 155-5l8 8C158-145 99-77 24-37l-8-8c64-39 114-97 139-173l-115 7" id="aX"/><use transform="matrix(0.061728395061728385,0,0,0.061728395061728385,0,0)" xlink:href="#aX" id="H"/><path fill="#333" d="M58-237c44 7 107 4 148-4l8 8c-14 24-33 43-53 61 24 17 54 27 83 39l-19 18-73-49c-31 26-71 45-108 61l-7-7c58-27 106-62 141-113l-106 8zm33-41c29 6 65 6 97 0l-4 17c-27 2-58-1-82 4zm77 158c-2 17-4 35-3 55l107-18v-174c-2-22-20-25-43-32l4-9c22 2 48 7 67 11-13 98 6 225-10 327l-15 2-3-115-138 24-93 10-13-23c35 6 79 3 115-1 2-30 1-54-27-54 4-19 35-3 52-3" id="aY"/><path fill="#333" d="M170-252c-8 25-20 47-35 66 26 24 54 46 86 65l-20 18-73-73c-27 35-63 64-101 87l-7-7c50-36 96-82 116-147-5-9-15-11-26-18 12-17 42 6 60 9zm96-5c-1-22-20-25-43-32l3-9c23 2 49 7 68 11-12 70 5 170-10 242l-15 2c-5-67-1-142-3-214zM224 26c-36-4-90 18-93-13-4-39 8-77-30-77 5-18 38-2 56-2-2 21-2 45-2 68-1 20 31 9 49 12 37-3 79-3 111-10l-4 22h-87" id="aZ"/><g id="I"><use transform="matrix(0.061728395061728385,0,0,0.061728395061728385,0,0)" xlink:href="#aY"/><use transform="matrix(0.061728395061728385,0,0,0.061728395061728385,21.111111111111107,0)" xlink:href="#aZ"/></g><use transform="matrix(0.061728395061728385,0,0,0.061728395061728385,0,0)" xlink:href="#ae" id="J"/><g id="K"><use transform="matrix(0.04938271604938272,0,0,0.04938271604938272,0,0)" xlink:href="#af"/><use transform="matrix(0.04938271604938272,0,0,0.04938271604938272,16.88888888888889,0)" xlink:href="#ag"/></g><path fill="#333" d="M61-279c60 9 141 6 197-4l11 11c-20 22-44 43-71 59 33 10 74 17 112 22l-21 26c-33-15-75-26-110-38-40 21-86 37-134 47l-9-11c70-18 132-50 176-92-45 3-93 2-133 9zM165-82c-2-8-6-9-16-12 6-19 35-3 48-2l-5 15c35 5 65 22 65 60 0 81-160 81-160 0 0-39 31-55 68-61zm12 103c26 0 46-17 46-44 0-26-18-44-46-44s-46 18-46 44c0 27 20 44 46 44zm22-197c-2 15-4 30-3 48l143-10-4 29-263 3-56 5-12-30 158 4c2-25 0-44-27-41l6-13" id="ba"/><path fill="#333" d="M12-34l105 5v-60c-21 2-42 3-42-19 0-32 6-66-25-68l6-11c52 5 120 4 175 1l3-56-136 4-29 4-16-28c65 10 153 6 222 1-6 23-9 48-13 73l13-1-3 22-163 1c-2 15-1 33-1 50 28 23 128 0 177-2l-6 28h-33v57c29-1 63-4 88-8l-4 29L79-9 23-4zm137 4l65-2v-58h-65v60" id="bb"/><g id="L"><use transform="matrix(0.06172839506172839,0,0,0.06172839506172839,0,0)" xlink:href="#ba"/><use transform="matrix(0.06172839506172839,0,0,0.06172839506172839,21.11111111111111,0)" xlink:href="#bb"/></g><use transform="matrix(0.06172839506172839,0,0,0.06172839506172839,0,0)" xlink:href="#aU" id="M"/><use transform="matrix(0.06172839506172839,0,0,0.06172839506172839,0,0)" xlink:href="#aO" id="N"/><g id="O"><use transform="matrix(0.06172839506172839,0,0,0.06172839506172839,0,0)" xlink:href="#U"/><use transform="matrix(0.06172839506172839,0,0,0.06172839506172839,12.345679012345679,0)" xlink:href="#V"/><use transform="matrix(0.06172839506172839,0,0,0.06172839506172839,27.160493827160494,0)" xlink:href="#W"/><use transform="matrix(0.06172839506172839,0,0,0.06172839506172839,40.67901234567901,0)" xlink:href="#V"/><use transform="matrix(0.06172839506172839,0,0,0.06172839506172839,55.49382716049382,0)" xlink:href="#W"/><use transform="matrix(0.06172839506172839,0,0,0.06172839506172839,69.01234567901234,0)" xlink:href="#X"/><use transform="matrix(0.06172839506172839,0,0,0.06172839506172839,85,0)" xlink:href="#Y"/><use transform="matrix(0.06172839506172839,0,0,0.06172839506172839,100.98765432098766,0)" xlink:href="#Z"/><use transform="matrix(0.06172839506172839,0,0,0.06172839506172839,108.33333333333334,0)" xlink:href="#aa"/><use transform="matrix(0.06172839506172839,0,0,0.06172839506172839,120.67901234567903,0)" xlink:href="#Z"/><use transform="matrix(0.06172839506172839,0,0,0.06172839506172839,128.0246913580247,0)" xlink:href="#ab"/><use transform="matrix(0.06172839506172839,0,0,0.06172839506172839,141.54320987654322,0)" xlink:href="#W"/></g><g id="P"><use transform="matrix(0.06172839506172839,0,0,0.06172839506172839,0,0)" xlink:href="#aC"/><use transform="matrix(0.06172839506172839,0,0,0.06172839506172839,21.11111111111111,0)" xlink:href="#aD"/><use transform="matrix(0.06172839506172839,0,0,0.06172839506172839,42.22222222222222,0)" xlink:href="#at"/></g><g id="Q"><use transform="matrix(0.06172839506172839,0,0,0.06172839506172839,0,0)" xlink:href="#aP"/><use transform="matrix(0.06172839506172839,0,0,0.06172839506172839,21.11111111111111,0)" xlink:href="#aQ"/><use transform="matrix(0.06172839506172839,0,0,0.06172839506172839,42.22222222222222,0)" xlink:href="#aR"/></g><g id="R"><use transform="matrix(0.06172839506172839,0,0,0.06172839506172839,0,0)" xlink:href="#aS"/><use transform="matrix(0.06172839506172839,0,0,0.06172839506172839,21.11111111111111,0)" xlink:href="#aT"/></g></defs></g></svg>