<svg xmlns="http://www.w3.org/2000/svg" xmlns:xlink="http://www.w3.org/1999/xlink" xmlns:lucid="lucid" width="1622.2" height="1120"><g transform="translate(-49 1180)" lucid:page-tab-id="0_0"><path d="M292.43-1160c26.5 0 48 17.9 48 40s-21.5 40-48 40h-144c-26.5 0-48-17.9-48-40s21.5-40 48-40z" stroke="#5e5e5e" stroke-width="3" fill="#fff"/><use xlink:href="#a" transform="matrix(1,0,0,1,105.43307086614163,-1155) translate(91.01851851851852 39.65277777777778)"/><path d="M215.44-836.67c2.76-1.84 7.23-1.84 10 0l110 73.34c2.76 1.84 2.76 4.82 0 6.66l-110 73.34c-2.77 1.84-7.24 1.84-10 0l-110-73.34c-2.77-1.84-2.77-4.82 0-6.66z" stroke="#5e5e5e" stroke-width="3" fill="#fff"/><use xlink:href="#b" transform="matrix(1,0,0,1,100.43307086614163,-840) translate(102.78277777777777 69.17745777777778)"/><use xlink:href="#c" transform="matrix(1,0,0,1,100.43307086614163,-840) translate(37.56672839506175 95.84412444444443)"/><use xlink:href="#d" transform="matrix(1,0,0,1,100.43307086614163,-840) translate(120.505 122.5107911111111)"/><path d="M220.43-1077.5v37.5" stroke="#5e5e5e" stroke-width="2" fill="none"/><path d="M221.43-1077.47h-2v-1.03h2" fill="#5e5e5e"/><path d="M220.43-1024.74L215.8-1039h9.27z" stroke="#5e5e5e" stroke-width="2" fill="#5e5e5e"/><path d="M220.43-897.5v39.5" stroke="#5e5e5e" stroke-width="2" fill="none"/><path d="M221.43-897.47h-2v-1.03h2" fill="#5e5e5e"/><path d="M220.43-842.73L215.8-857h9.27z" stroke="#5e5e5e" stroke-width="2" fill="#5e5e5e"/><path d="M353.16-759h-13.3v-2h13.3m62.8 2h-41.12v-2h41.1" fill="#5e5e5e"/><path d="M339.88-759h-.9l-.24-2h1.14M431.2-760l-14.25 4.64v-9.28z" fill="#5e5e5e"/><path d="M434.45-760l-18.5 6v-12m2 9.26l10.03-3.26-10.03-3.26" fill="#5e5e5e"/><use xlink:href="#e" transform="matrix(1,0,0,1,353.1604938271605,-770.6666666666666) translate(0 14.222222222222223)"/><path d="M221.43-640h-2v-8h2m0-21.33h-2v-10.17h2" fill="#5e5e5e"/><path d="M221.43-680.5v1.02h-2v-1.03M220.43-624.74L215.8-639h9.27z" fill="#5e5e5e"/><path d="M220.43-621.5l-6-18.5h12m-9.26 2l3.26 10.03L223.7-638" fill="#5e5e5e"/><use xlink:href="#f" transform="matrix(1,0,0,1,207.6429474093515,-669.3333333333333) translate(0 14.222222222222223)"/><path d="M100.43-614c0-3.3 2.7-6 6-6h228c3.32 0 6 2.7 6 6v108c0 3.3-2.68 6-6 6h-228c-3.3 0-6-2.7-6-6z" stroke="#5e5e5e" stroke-width="3" fill="#fff"/><use xlink:href="#g" transform="matrix(1,0,0,1,112.43307086614163,-608) translate(10.037037037037038 26.77777777777778)"/><use xlink:href="#h" transform="matrix(1,0,0,1,112.43307086614163,-608) translate(75.8395061728395 26.77777777777778)"/><use xlink:href="#i" transform="matrix(1,0,0,1,112.43307086614163,-608) translate(166.5185185185185 26.77777777777778)"/><use xlink:href="#j" transform="matrix(1,0,0,1,112.43307086614163,-608) translate(3.679012345679027 53.44444444444445)"/><use xlink:href="#k" transform="matrix(1,0,0,1,112.43307086614163,-608) translate(164.2962962962963 53.44444444444445)"/><use xlink:href="#l" transform="matrix(1,0,0,1,112.43307086614163,-608) translate(57.81481481481482 80.11111111111111)"/><use xlink:href="#m" transform="matrix(1,0,0,1,112.43307086614163,-608) translate(80.65432098765433 80.11111111111111)"/><path d="M220.43-497.5v39.5" stroke="#5e5e5e" stroke-width="2" fill="none"/><path d="M221.43-497.47h-2v-1.03h2" fill="#5e5e5e"/><path d="M220.43-442.73L215.8-457h9.27z" stroke="#5e5e5e" stroke-width="2" fill="#5e5e5e"/><path d="M100.43-1014c0-3.3 2.7-6 6-6h228c3.32 0 6 2.7 6 6v108c0 3.3-2.68 6-6 6h-228c-3.3 0-6-2.7-6-6z" stroke="#5e5e5e" stroke-width="3" fill="#fff"/><use xlink:href="#n" transform="matrix(1,0,0,1,112.43307086614163,-1008) translate(65.22222222222223 53.77777777777778)"/><path d="M100.43-214c0-3.3 2.7-6 6-6h228c3.32 0 6 2.7 6 6v108c0 3.3-2.68 6-6 6h-228c-3.3 0-6-2.7-6-6z" stroke="#5e5e5e" stroke-width="3" fill="#fff"/><use xlink:href="#g" transform="matrix(1,0,0,1,112.43307086614163,-208) translate(37.84567901234567 26.77777777777778)"/><use xlink:href="#o" transform="matrix(1,0,0,1,112.43307086614163,-208) translate(103.64814814814814 26.77777777777778)"/><use xlink:href="#i" transform="matrix(1,0,0,1,112.43307086614163,-208) translate(138.70987654320987 26.77777777777778)"/><use xlink:href="#j" transform="matrix(1,0,0,1,112.43307086614163,-208) translate(3.679012345679027 53.44444444444445)"/><use xlink:href="#k" transform="matrix(1,0,0,1,112.43307086614163,-208) translate(164.2962962962963 53.44444444444445)"/><use xlink:href="#l" transform="matrix(1,0,0,1,112.43307086614163,-208) translate(56.58024691358024 80.11111111111111)"/><use xlink:href="#p" transform="matrix(1,0,0,1,112.43307086614163,-208) translate(79.41975308641975 80.11111111111111)"/><path d="M450.45-814.2c.86-3.2 4.24-5.8 7.55-5.8h196c3.3 0 5.3 2.6 4.45 5.8l-28.9 108.4c-.86 3.2-4.24 5.8-7.55 5.8H426c-3.3 0-5.3-2.6-4.45-5.8z" stroke="#5e5e5e" stroke-width="3" fill="#fff"/><use xlink:href="#q" transform="matrix(1,0,0,1,425,-815) translate(58.412407407407414 45.27777777777778)"/><use xlink:href="#r" transform="matrix(1,0,0,1,425,-815) translate(149.09141975308643 45.27777777777778)"/><use xlink:href="#s" transform="matrix(1,0,0,1,425,-815) translate(60.08524691358024 71.94444444444446)"/><use xlink:href="#p" transform="matrix(1,0,0,1,425,-815) translate(82.92475308641974 71.94444444444446)"/><path d="M1378.7-414c0-3.3 2.7-6 6-6h228c3.3 0 6 2.7 6 6v108c0 3.3-2.7 6-6 6h-228c-3.3 0-6-2.7-6-6z" stroke="#5e5e5e" stroke-width="3" fill="#fff"/><use xlink:href="#t" transform="matrix(1,0,0,1,1390.700787401575,-408) translate(38.12345679012347 53.77777777777778)"/><use xlink:href="#u" transform="matrix(1,0,0,1,1390.700787401575,-408) translate(101.51851851851853 53.77777777777778)"/><path d="M342.93-160h60.15" stroke="#5e5e5e" stroke-width="2" fill="none"/><path d="M342.96-159h-1.03v-2h1.03" fill="#5e5e5e"/><path d="M418.35-160l-14.27 4.64v-9.28z" stroke="#5e5e5e" stroke-width="2" fill="#5e5e5e"/><path d="M215.44-436.67c2.76-1.84 7.23-1.84 10 0l110 73.34c2.76 1.84 2.76 4.82 0 6.66l-110 73.34c-2.77 1.84-7.24 1.84-10 0l-110-73.34c-2.77-1.84-2.77-4.82 0-6.66z" stroke="#5e5e5e" stroke-width="3" fill="#fff"/><use xlink:href="#v" transform="matrix(1,0,0,1,105.43307086614163,-435) translate(81.70253086419754 78.71527777777777)"/><path d="M535-236.67c2.76-1.84 7.24-1.84 10 0l110 73.34c2.76 1.84 2.76 4.82 0 6.66L545-83.33c-2.76 1.84-7.24 1.84-10 0l-110-73.34c-2.76-1.84-2.76-4.82 0-6.66z" stroke="#5e5e5e" stroke-width="3" fill="#fff"/><use xlink:href="#v" transform="matrix(1,0,0,1,425,-235) translate(81.70253086419754 78.71527777777777)"/><path d="M854.57-836.67c2.76-1.84 7.23-1.84 10 0l110 73.34c2.76 1.84 2.76 4.82 0 6.66l-110 73.34c-2.77 1.84-7.24 1.84-10 0l-110-73.34c-2.77-1.84-2.77-4.82 0-6.66z" stroke="#5e5e5e" stroke-width="3" fill="#fff"/><use xlink:href="#w" transform="matrix(1,0,0,1,744.5669291338584,-835) translate(87.28895061728396 78.71527777777777)"/><path d="M739.57-414c0-3.3 2.68-6 6-6h228c3.3 0 6 2.7 6 6v108c0 3.3-2.7 6-6 6h-228c-3.32 0-6-2.7-6-6z" stroke="#5e5e5e" stroke-width="3" fill="#fff"/><use xlink:href="#x" transform="matrix(1,0,0,1,751.5669291338584,-408) translate(16.117283950617292 38.77777777777778)"/><use xlink:href="#y" transform="matrix(1,0,0,1,751.5669291338584,-408) translate(35.19135802469137 38.77777777777778)"/><use xlink:href="#z" transform="matrix(1,0,0,1,751.5669291338584,-408) translate(53.277777777777786 38.77777777777778)"/><use xlink:href="#A" transform="matrix(1,0,0,1,751.5669291338584,-408) translate(138.9567901234568 38.77777777777778)"/><use xlink:href="#B" transform="matrix(1,0,0,1,751.5669291338584,-408) translate(181.42592592592592 38.77777777777778)"/><use xlink:href="#h" transform="matrix(1,0,0,1,751.5669291338584,-408) translate(47.90740740740742 65.44444444444446)"/><use xlink:href="#C" transform="matrix(1,0,0,1,751.5669291338584,-408) translate(138.58641975308643 65.44444444444446)"/><path d="M860.57-640h-2v-8h2m0-21.33h-2v-10.17h2" fill="#5e5e5e"/><path d="M860.57-680.5v1.02h-2v-1.03M859.57-624.74L854.93-639h9.27z" fill="#5e5e5e"/><path d="M859.57-621.5l-6-18.5h12m-9.26 2l3.27 10.03 3.26-10.03" fill="#5e5e5e"/><use xlink:href="#f" transform="matrix(1,0,0,1,846.7768056770683,-669.3333333333333) translate(0 14.222222222222223)"/><path d="M1174.14-436.67c2.76-1.84 7.23-1.84 10 0l110 73.34c2.76 1.84 2.76 4.82 0 6.66l-110 73.34c-2.77 1.84-7.24 1.84-10 0l-110-73.34c-2.77-1.84-2.77-4.82 0-6.66z" stroke="#5e5e5e" stroke-width="3" fill="#fff"/><use xlink:href="#D" transform="matrix(1,0,0,1,1064.133858267717,-435) translate(34.97413580246915 78.71527777777777)"/><use xlink:href="#E" transform="matrix(1,0,0,1,1064.133858267717,-435) translate(56.51734567901235 78.71527777777777)"/><use xlink:href="#F" transform="matrix(1,0,0,1,1064.133858267717,-435) translate(75.59141975308643 78.71527777777777)"/><use xlink:href="#G" transform="matrix(1,0,0,1,1064.133858267717,-435) translate(127.9370987654321 78.71527777777777)"/><use xlink:href="#H" transform="matrix(1,0,0,1,1064.133858267717,-435) translate(171.70253086419754 78.71527777777777)"/><path d="M1059.13-814c0-3.3 2.7-6 6-6h228c3.32 0 6 2.7 6 6v108c0 3.3-2.68 6-6 6h-228c-3.3 0-6-2.7-6-6z" stroke="#5e5e5e" stroke-width="3" fill="#fff"/><use xlink:href="#I" transform="matrix(1,0,0,1,1071.133858267717,-808) translate(48.5246913580247 53.77777777777778)"/><use xlink:href="#u" transform="matrix(1,0,0,1,1071.133858267717,-808) translate(91.11728395061729 53.77777777777778)"/><path d="M994-759h-15v-2h15m45.13 2h-23.46v-2h23.46M979-759h-.9l-.23-2H979M1054.4-760l-14.27 4.64v-9.28z" fill="#5e5e5e"/><path d="M1057.63-760l-18.5 6v-12m2 9.26l10.03-3.26-10.03-3.26" fill="#5e5e5e"/><use xlink:href="#e" transform="matrix(1,0,0,1,993.9884399869669,-770.6666666666666) translate(0 14.222222222222223)"/><path d="M982.07-360h60.14" stroke="#5e5e5e" stroke-width="2" fill="none"/><path d="M982.1-359h-1.03v-2h1.02" fill="#5e5e5e"/><path d="M1057.48-360l-14.27 4.64v-9.28z" stroke="#5e5e5e" stroke-width="2" fill="#5e5e5e"/><path d="M1180.13-440.5h-2v-7.5h2m0-21.33h-2V-680h2" fill="#5e5e5e"/><path d="M1180.13-439.5h-2v-1.02h2M1183.77-681h-9.27l4.63-14.26z" fill="#5e5e5e"/><path d="M1185.15-680h-12.03l6-18.5m-3.25 16.5h6.52l-3.27-10.03" fill="#5e5e5e"/><use xlink:href="#e" transform="matrix(1,0,0,1,1168.2943520948775,-469.33333333333337) translate(0 14.222222222222223)"/><path d="M1307.2-359h-8.65v-2h8.66m51.5 2h-25.9v-2h25.9" fill="#5e5e5e"/><path d="M1298.58-359h-.9l-.24-2h1.14M1373.96-360l-14.26 4.64v-9.28z" fill="#5e5e5e"/><path d="M1377.2-360l-18.5 6v-12m2 9.26l10.03-3.26-10.03-3.26" fill="#5e5e5e"/><use xlink:href="#f" transform="matrix(1,0,0,1,1307.2098765432102,-370.6666666666667) translate(0 14.222222222222223)"/><path d="M1570.7-1160c26.5 0 48 17.9 48 40s-21.5 40-48 40h-144c-26.5 0-48-17.9-48-40s21.5-40 48-40z" stroke="#5e5e5e" stroke-width="3" fill="#fff"/><use xlink:href="#J" transform="matrix(1,0,0,1,1383.700787401575,-1155) translate(95.24691358024691 39.65277777777778)"/><path d="M1498.7-422.5V-1060" stroke="#5e5e5e" stroke-width="2" fill="none"/><path d="M1499.7-421.5h-2v-1.03h2" fill="#5e5e5e"/><path d="M1498.7-1075.26l4.64 14.26h-9.27z" stroke="#5e5e5e" stroke-width="2" fill="#5e5e5e"/><path d="M1301.63-760h191.07c3.3 0 6-2.7 6-6v-294" stroke="#5e5e5e" stroke-width="2" fill="none"/><path d="M1301.66-759h-1.03v-2h1.03" fill="#5e5e5e"/><path d="M1498.7-1075.26l4.64 14.26h-9.27z" stroke="#5e5e5e" stroke-width="2" fill="#5e5e5e"/><path d="M739.57-614c0-3.3 2.68-6 6-6h228c3.3 0 6 2.7 6 6v108c0 3.3-2.7 6-6 6h-228c-3.32 0-6-2.7-6-6z" stroke="#5e5e5e" stroke-width="3" fill="#fff"/><use xlink:href="#K" transform="matrix(1,0,0,1,751.5669291338584,-608) translate(16.117283950617292 38.77777777777778)"/><use xlink:href="#y" transform="matrix(1,0,0,1,751.5669291338584,-608) translate(35.19135802469137 38.77777777777778)"/><use xlink:href="#z" transform="matrix(1,0,0,1,751.5669291338584,-608) translate(53.277777777777786 38.77777777777778)"/><use xlink:href="#A" transform="matrix(1,0,0,1,751.5669291338584,-608) translate(138.9567901234568 38.77777777777778)"/><use xlink:href="#B" transform="matrix(1,0,0,1,751.5669291338584,-608) translate(181.42592592592592 38.77777777777778)"/><use xlink:href="#j" transform="matrix(1,0,0,1,751.5669291338584,-608) translate(12.93827160493828 65.44444444444446)"/><use xlink:href="#L" transform="matrix(1,0,0,1,751.5669291338584,-608) translate(173.55555555555554 65.44444444444446)"/><path d="M859.57-497.5v57.5" stroke="#5e5e5e" stroke-width="2" fill="none"/><path d="M860.57-497.47h-2v-1.03h2" fill="#5e5e5e"/><path d="M859.57-424.74L854.93-439h9.27z" stroke="#5e5e5e" stroke-width="2" fill="#5e5e5e"/><path d="M646.55-760h76.1" stroke="#5e5e5e" stroke-width="2" fill="none"/><path d="M646.58-759h-1.3l.54-2h.76" fill="#5e5e5e"/><path d="M737.9-760l-14.25 4.64v-9.28z" stroke="#5e5e5e" stroke-width="2" fill="#5e5e5e"/><path d="M541-240.5h-2v-19.97h2m.43-208.55l-.3.72-.13.06v186.44h-2v-187.18l.3-.72.13-.06V-680h2" fill="#5e5e5e"/><path d="M541-239.5h-2v-1.02h2M545.07-681h-9.27l4.63-14.26z" fill="#5e5e5e"/><path d="M546.44-680h-12.02l6-18.5m-3.25 16.5h6.52l-3.27-10.03" fill="#5e5e5e"/><g><use xlink:href="#f" transform="matrix(1,0,0,1,527.2098765432099,-281.80428152109096) translate(0 14.222222222222223)"/></g><path d="M80.43-959h-14.3l-2.64.7-1.8 1.8-.7 2.63v587.74l.7 2.64 1.8 1.8 2.63.7h1.8v2h-2.06l-3.42-.92-2.53-2.53-.92-3.42v-588.26l.92-3.42 2.53-2.53 3.42-.92h14.56M101-361v2h-7.5v-2M102.13-359H101v-2h.9M95.7-960l-14.27 4.64v-9.28z" fill="#5e5e5e"/><path d="M98.93-960l-18.5 6v-12m2 9.26L92.46-960l-10.03-3.26" fill="#5e5e5e"/><g><use xlink:href="#f" transform="matrix(1,0,0,1,67.91739517264543,-370.6666666666667) translate(0 14.222222222222223)"/></g><path d="M221.43-240h-2v-8h2m0-21.33h-2v-10.17h2" fill="#5e5e5e"/><path d="M221.43-280.5v1.02h-2v-1.03M220.43-224.74L215.8-239h9.27z" fill="#5e5e5e"/><path d="M220.43-221.5l-6-18.5h12m-9.26 2l3.26 10.03L223.7-238" fill="#5e5e5e"/><g><use xlink:href="#e" transform="matrix(1,0,0,1,209.59356469330214,-269.33333333333337) translate(0 14.222222222222223)"/></g><path d="M1378.7-214c0-3.3 2.7-6 6-6h228c3.3 0 6 2.7 6 6v108c0 3.3-2.7 6-6 6h-228c-3.3 0-6-2.7-6-6z" stroke="#5e5e5e" stroke-width="3" fill="#fff"/><g><use xlink:href="#M" transform="matrix(1,0,0,1,1390.700787401575,-208) translate(87.62962962962963 53.77777777777778)"/></g><path d="M675.83-159h-16.4v-2h16.4m682.87 2H697.5v-2h661.2" fill="#5e5e5e"/><path d="M659.44-159h-.9l-.24-2h1.14M1373.96-160l-14.26 4.64v-9.28z" fill="#5e5e5e"/><path d="M1377.2-160l-18.5 6v-12m2 9.26l10.03-3.26-10.03-3.26" fill="#5e5e5e"/><g><use xlink:href="#e" transform="matrix(1,0,0,1,675.8271604938271,-170.66666666666666) translate(0 14.222222222222223)"/></g><path d="M1621.2-160h33c3.3 0 6-2.7 6-6v-948c0-3.32-2.7-6-6-6h-15.5" stroke="#5e5e5e" stroke-width="2" fill="none"/><path d="M1621.23-159h-1.03v-2h1.03" fill="#5e5e5e"/><path d="M1623.44-1120l14.26-4.64v9.27z" stroke="#5e5e5e" stroke-width="2" fill="#5e5e5e"/><defs><path fill="#333" d="M185-72C185 13 82 14 19-9v-63h16c2 37 21 58 61 58 46 0 69-51 31-71-42-23-106-23-106-90 0-69 87-70 148-56v56h-16l-7-32c-26-25-110-13-82 35 39 34 121 26 121 100" id="N"/><path fill="#333" d="M78-41c-2 24 21 26 40 20C122 3 98 2 77 4 5 10 32-84 27-147H6v-11l25-7 21-38h26v38h35v18H78v106" id="O"/><path fill="#333" d="M31-163c51-5 127-20 127 40v107l17 4V0h-61l-4-13C82 13 12 12 12-46c0-51 46-52 95-53 9-45-22-69-57-44l-7 20H31v-40zM62-47c0 30 26 34 45 23v-59c-28 0-45 6-45 36" id="P"/><path fill="#333" d="M132-132c-21 0-37 9-50 16v100l26 4V0H10v-12l21-4v-133l-21-5v-11h69l2 34c17-18 35-41 71-40v61c-17 3-14-14-20-22" id="Q"/><g id="a"><use transform="matrix(0.06172839506172839,0,0,0.06172839506172839,0,0)" xlink:href="#N"/><use transform="matrix(0.06172839506172839,0,0,0.06172839506172839,12.345679012345679,0)" xlink:href="#O"/><use transform="matrix(0.06172839506172839,0,0,0.06172839506172839,19.691358024691358,0)" xlink:href="#P"/><use transform="matrix(0.06172839506172839,0,0,0.06172839506172839,30.80246913580247,0)" xlink:href="#Q"/><use transform="matrix(0.06172839506172839,0,0,0.06172839506172839,40.617283950617285,0)" xlink:href="#O"/></g><path fill="#333" d="M10 0v-9l31-5v-208l-31-4v-10h95v10l-30 4v93h110v-93l-30-4v-10h94v10l-30 4v208l30 5v9h-94v-9l30-5v-99H75v99l30 5v9H10" id="R"/><path fill="#333" d="M32-163c41-10 102-14 102 39v112c8 3 24-2 21 12h-45l-4-17C83 13 3 13 13-46c-2-50 45-50 92-51 4-36-5-70-42-56-6 2-12 4-16 6-4 7 0 23-15 20v-36zM42-47c0 41 41 33 63 22v-59c-34 1-63-1-63 37" id="S"/><path fill="#333" d="M41-130c7 48 86 23 86 84 0 56-69 57-112 41v-40c20 0 9 29 31 31 35 19 77-26 41-50-27-18-72-13-72-59 0-50 58-52 100-41v36c-19 1-8-25-28-25-21-7-50-1-46 23" id="T"/><g id="b"><use transform="matrix(0.061728395061728385,0,0,0.061728395061728385,0,0)" xlink:href="#R"/><use transform="matrix(0.061728395061728385,0,0,0.061728395061728385,15.987654320987652,0)" xlink:href="#S"/><use transform="matrix(0.061728395061728385,0,0,0.061728395061728385,25.802469135802465,0)" xlink:href="#T"/></g><path fill="#333" d="M75-108c48 3 76-12 76-58s-28-57-76-54v112zm111-58c-1 60-46 78-111 74v78l37 5v9H13v-9l28-5v-208l-31-4v-10c81 1 178-14 176 70" id="U"/><path fill="#333" d="M199-173c-1 36-21 56-49 65l64 94 26 5v9h-57l-66-103H75v89l35 5v9H13v-9l28-5v-208l-31-4v-10c80 4 190-20 189 63zM75-119c50 2 89-1 89-51 0-49-39-52-89-50v101" id="V"/><path fill="#333" d="M10-9l31-5v-208l-31-4v-10h177v57h-11l-6-38c-28-4-63-3-95-3v92h63l6-28h11v73h-11l-6-29H75v96l105-3 10-43h12l-3 62H10v-9" id="W"/><path fill="#333" d="M130-224c-62 0-78 43-78 106 0 64 16 108 78 108s78-44 78-108c0-63-16-106-78-106zM145 3C61 9 15-34 15-118c0-80 37-120 115-120 77 0 115 42 115 120 1 59-21 95-62 112 19 19 30 53 71 46v12c-30 12-67 2-84-19" id="X"/><path fill="#333" d="M134-16c44-1 70-21 70-64v-142l-32-4v-10h80v10l-30 4v141c0 57-33 84-91 85-58 0-93-26-93-82v-144l-30-4v-10h94v10l-30 4c7 82-31 209 62 206" id="Y"/><path fill="#333" d="M77-14l30 5v9H13v-9l30-5v-208l-30-4v-10h94v10l-30 4v208" id="Z"/><path fill="#333" d="M178-68c0 79-95 82-154 59v-54h12c1 35 22 52 60 52 50 0 69-58 33-82-39-24-105-21-105-85 0-67 86-66 142-53v49h-12l-6-29c-31-27-121-7-89 42 28 43 119 24 119 101" id="aa"/><path fill="#333" d="M55 0v-9l38-5v-207c-22 1-53 0-70 4l-5 37H7v-56h207v56h-12l-5-37-70-3v206l37 5v9H55" id="ab"/><path fill="#333" d="M19-231c61-19 146-3 123 76-8 29-32 42-62 48l-3 45H63l-4-58c33-4 57-15 54-56 6-47-42-58-77-39l-6 29H19v-45zM72-37c14 0 21 9 21 21S84 5 72 5 50-2 51-16c0-13 8-21 21-21" id="ac"/><g id="c"><use transform="matrix(0.061728395061728385,0,0,0.061728395061728385,0,0)" xlink:href="#U"/><use transform="matrix(0.061728395061728385,0,0,0.061728395061728385,12.345679012345677,0)" xlink:href="#V"/><use transform="matrix(0.061728395061728385,0,0,0.061728395061728385,27.16049382716049,0)" xlink:href="#W"/><use transform="matrix(0.061728395061728385,0,0,0.061728395061728385,40.679012345679006,0)" xlink:href="#V"/><use transform="matrix(0.061728395061728385,0,0,0.061728395061728385,55.49382716049382,0)" xlink:href="#W"/><use transform="matrix(0.061728395061728385,0,0,0.061728395061728385,69.01234567901234,0)" xlink:href="#X"/><use transform="matrix(0.061728395061728385,0,0,0.061728395061728385,85,0)" xlink:href="#Y"/><use transform="matrix(0.061728395061728385,0,0,0.061728395061728385,100.98765432098764,0)" xlink:href="#Z"/><use transform="matrix(0.061728395061728385,0,0,0.061728395061728385,108.33333333333333,0)" xlink:href="#aa"/><use transform="matrix(0.061728395061728385,0,0,0.061728395061728385,120.67901234567901,0)" xlink:href="#Z"/><use transform="matrix(0.061728395061728385,0,0,0.061728395061728385,128.02469135802468,0)" xlink:href="#ab"/><use transform="matrix(0.061728395061728385,0,0,0.061728395061728385,141.5432098765432,0)" xlink:href="#W"/><use transform="matrix(0.061728395061728385,0,0,0.061728395061728385,155.0617283950617,0)" xlink:href="#ac"/></g><path fill="#333" d="M203-218l-32-5v-13h84v13l-30 5V0h-21L59-189v171l32 5V0H7v-13l30-5v-200l-30-5v-13h81L203-85v-133" id="ad"/><path fill="#333" d="M90-170c54-1 76 32 76 87 1 56-23 87-77 87-53 0-75-32-75-87s23-86 76-87zM89-14c28-2 26-38 26-69s3-69-26-69c-27 0-24 39-24 69s-3 66 24 69" id="ae"/><g id="e"><use transform="matrix(0.04938271604938272,0,0,0.04938271604938272,0,0)" xlink:href="#ad"/><use transform="matrix(0.04938271604938272,0,0,0.04938271604938272,12.790123456790125,0)" xlink:href="#ae"/></g><path fill="#333" d="M160-93v75l38 5V0H67v-13l38-5v-74L33-218l-27-5v-13h122v13l-32 5 54 98 52-98-29-5v-13h80v13l-25 5" id="af"/><path fill="#333" d="M12-83c0-55 22-85 75-86 52-1 66 33 63 88H64c-1 37 6 64 44 63 14 0 28-4 39-6 3 28-28 25-55 27-57 4-80-31-80-86zm90-17c2-26 0-63-27-48-10 9-11 28-11 48h38" id="ag"/><path fill="#333" d="M102-142c-14-17-68-15-54 18 24 26 83 17 83 72 0 62-72 62-120 47v-45h12c4 23 16 37 43 37 35 0 39-37 9-46-31-9-65-19-64-61 0-52 59-55 108-45v43h-11" id="ah"/><g id="f"><use transform="matrix(0.04938271604938272,0,0,0.04938271604938272,0,0)" xlink:href="#af"/><use transform="matrix(0.04938271604938272,0,0,0.04938271604938272,10.814814814814817,0)" xlink:href="#ag"/><use transform="matrix(0.04938271604938272,0,0,0.04938271604938272,18.666666666666668,0)" xlink:href="#ah"/></g><path fill="#333" d="M84-170c49 0 66 33 63 87H46c-8 60 38 80 95 63v10C128-2 108 4 88 4 34 4 14-29 14-84c-1-54 22-86 70-86zm33 73c12-57-57-82-69-24-1 7-2 15-2 24h71" id="ai"/><path fill="#333" d="M57-145c16-10 35-24 60-25v45c-19 1-8-30-40-17l-20 6v124l29 4v8H7v-8l21-4v-141c-8-3-24 2-21-12h48" id="aj"/><path fill="#333" d="M45-84c0 64 52 80 104 63 1 25-30 25-55 25-56 0-80-32-80-88 0-76 62-98 131-80v46h-10c-5-15-4-31-23-35-47-10-67 21-67 69" id="ak"/><path fill="#333" d="M126-119c3-38-42-31-69-25v132l23 4v8H7v-8l21-4v-226l-24-4v-8h53l-1 98c31-22 99-31 99 31v109c7 3 23-1 20 12h-71v-8l22-4v-107" id="al"/><g id="g"><use transform="matrix(0.06172839506172839,0,0,0.06172839506172839,0,0)" xlink:href="#aa"/><use transform="matrix(0.06172839506172839,0,0,0.06172839506172839,12.345679012345679,0)" xlink:href="#ai"/><use transform="matrix(0.06172839506172839,0,0,0.06172839506172839,22.160493827160494,0)" xlink:href="#S"/><use transform="matrix(0.06172839506172839,0,0,0.06172839506172839,31.975308641975307,0)" xlink:href="#aj"/><use transform="matrix(0.06172839506172839,0,0,0.06172839506172839,39.32098765432099,0)" xlink:href="#ak"/><use transform="matrix(0.06172839506172839,0,0,0.06172839506172839,49.135802469135804,0)" xlink:href="#al"/></g><path fill="#333" d="M81-9v9H4v-9l26-5 81-224h33l83 224 30 5v9h-99v-9l31-5-23-68H73L49-14zm38-203L78-98h82" id="am"/><path fill="#333" d="M52-115c0 90 69 126 140 93v-67l-30-5v-9h87v9l-23 5v77c-27 8-56 16-90 16C59 2 15-37 15-115c-1-82 41-123 122-123 31 0 59 4 83 10v51h-12l-5-29c-15-12-38-18-65-18-66-1-86 42-86 109" id="an"/><g id="h"><use transform="matrix(0.06172839506172839,0,0,0.06172839506172839,0,0)" xlink:href="#ab"/><use transform="matrix(0.06172839506172839,0,0,0.06172839506172839,11.728395061728394,0)" xlink:href="#am"/><use transform="matrix(0.06172839506172839,0,0,0.06172839506172839,27.716049382716047,0)" xlink:href="#V"/><use transform="matrix(0.06172839506172839,0,0,0.06172839506172839,42.53086419753086,0)" xlink:href="#an"/><use transform="matrix(0.06172839506172839,0,0,0.06172839506172839,58.51851851851851,0)" xlink:href="#W"/><use transform="matrix(0.06172839506172839,0,0,0.06172839506172839,72.03703703703702,0)" xlink:href="#ab"/></g><path fill="#333" d="M240-154L185 4h-14l-41-109L90 4H77L20-153c-7-3-23 1-20-12h79v8l-27 4L91-41l40-108h14l40 109 38-113-28-4v-8h63v8" id="ao"/><path fill="#333" d="M47-200c-23 0-25-39 0-38 13 0 18 7 20 19-1 11-8 19-20 19zM65-12l28 4v8H8v-8l28-4v-141l-24-4v-8h53v153" id="ap"/><path fill="#333" d="M54-38c-1 25 24 26 44 20v12C71 10 25 9 25-35v-115H4c-2-14 14-10 21-15l18-38h11v38h38v15H54v112" id="aq"/><g id="i"><use transform="matrix(0.06172839506172839,0,0,0.06172839506172839,0,0)" xlink:href="#ao"/><use transform="matrix(0.06172839506172839,0,0,0.06172839506172839,15.987654320987653,0)" xlink:href="#ap"/><use transform="matrix(0.06172839506172839,0,0,0.06172839506172839,22.160493827160494,0)" xlink:href="#aq"/><use transform="matrix(0.06172839506172839,0,0,0.06172839506172839,28.333333333333332,0)" xlink:href="#al"/></g><g id="j"><use transform="matrix(0.06172839506172839,0,0,0.06172839506172839,0,0)" xlink:href="#U"/><use transform="matrix(0.06172839506172839,0,0,0.06172839506172839,12.345679012345679,0)" xlink:href="#V"/><use transform="matrix(0.06172839506172839,0,0,0.06172839506172839,27.160493827160494,0)" xlink:href="#W"/><use transform="matrix(0.06172839506172839,0,0,0.06172839506172839,40.67901234567901,0)" xlink:href="#V"/><use transform="matrix(0.06172839506172839,0,0,0.06172839506172839,55.49382716049382,0)" xlink:href="#W"/><use transform="matrix(0.06172839506172839,0,0,0.06172839506172839,69.01234567901234,0)" xlink:href="#X"/><use transform="matrix(0.06172839506172839,0,0,0.06172839506172839,85,0)" xlink:href="#Y"/><use transform="matrix(0.06172839506172839,0,0,0.06172839506172839,100.98765432098766,0)" xlink:href="#Z"/><use transform="matrix(0.06172839506172839,0,0,0.06172839506172839,108.33333333333334,0)" xlink:href="#aa"/><use transform="matrix(0.06172839506172839,0,0,0.06172839506172839,120.67901234567903,0)" xlink:href="#Z"/><use transform="matrix(0.06172839506172839,0,0,0.06172839506172839,128.0246913580247,0)" xlink:href="#ab"/><use transform="matrix(0.06172839506172839,0,0,0.06172839506172839,141.54320987654322,0)" xlink:href="#W"/></g><path fill="#333" d="M125-118c4-37-41-34-68-26v132l23 4v8H8C5-13 21-9 28-12v-141c-7-3-23 1-20-12h47l2 13c31-23 98-29 98 31v109c7 3 23-1 20 12h-72v-8l22-4v-106" id="ar"/><path fill="#333" d="M126-118c4-37-42-32-68-25v131l24 4v8H8C5-13 21-9 28-12v-141c-7-3-23 1-20-12h48l1 13c22-15 77-30 92 2 32-22 104-36 104 29v109c8 3 24-2 21 12h-75v-8l25-4v-106c3-39-45-31-72-24 7 37 1 88 3 130l25 4v8h-78v-8l24-4v-106" id="as"/><g id="k"><use transform="matrix(0.06172839506172839,0,0,0.06172839506172839,0,0)" xlink:href="#ar"/><use transform="matrix(0.06172839506172839,0,0,0.06172839506172839,11.11111111111111,0)" xlink:href="#S"/><use transform="matrix(0.06172839506172839,0,0,0.06172839506172839,20.925925925925924,0)" xlink:href="#as"/><use transform="matrix(0.06172839506172839,0,0,0.06172839506172839,38.20987654320987,0)" xlink:href="#ai"/></g><g id="l"><use transform="matrix(0.06172839506172839,0,0,0.06172839506172839,0,0)" xlink:href="#ap"/><use transform="matrix(0.06172839506172839,0,0,0.06172839506172839,6.172839506172839,0)" xlink:href="#ar"/></g><path fill="#333" d="M60-80l68-73c-7-3-20 0-17-12h58c3 13-13 9-20 12l-47 48 60 93c7 3 21-1 18 12h-68c-3-12 9-9 15-12L82-83 60-60v48c7 3 21-1 18 12H10v-8l21-4v-226l-24-4v-8h53v170" id="at"/><path fill="#333" d="M103-236c-39-15-35 32-34 71h44v15H69v136l35 6v8H15v-8l25-6v-136H11v-9l29-7c-6-59 23-100 80-84v36c-15 2-12-14-17-22" id="au"/><path fill="#333" d="M65-12l28 4v8H7v-8l28-4v-226l-28-4v-8h58v238" id="av"/><g id="m"><use transform="matrix(0.06172839506172839,0,0,0.06172839506172839,0,0)" xlink:href="#as"/><use transform="matrix(0.06172839506172839,0,0,0.06172839506172839,17.28395061728395,0)" xlink:href="#S"/><use transform="matrix(0.06172839506172839,0,0,0.06172839506172839,27.098765432098766,0)" xlink:href="#at"/><use transform="matrix(0.06172839506172839,0,0,0.06172839506172839,38.20987654320987,0)" xlink:href="#ai"/><use transform="matrix(0.06172839506172839,0,0,0.06172839506172839,48.02469135802469,0)" xlink:href="#au"/><use transform="matrix(0.06172839506172839,0,0,0.06172839506172839,55.37037037037037,0)" xlink:href="#ap"/><use transform="matrix(0.06172839506172839,0,0,0.06172839506172839,61.54320987654321,0)" xlink:href="#av"/><use transform="matrix(0.06172839506172839,0,0,0.06172839506172839,67.71604938271605,0)" xlink:href="#ai"/></g><g id="n"><use transform="matrix(0.06172839506172839,0,0,0.06172839506172839,0,0)" xlink:href="#ab"/><use transform="matrix(0.06172839506172839,0,0,0.06172839506172839,11.728395061728394,0)" xlink:href="#am"/><use transform="matrix(0.06172839506172839,0,0,0.06172839506172839,27.716049382716047,0)" xlink:href="#V"/><use transform="matrix(0.06172839506172839,0,0,0.06172839506172839,42.53086419753086,0)" xlink:href="#an"/><use transform="matrix(0.06172839506172839,0,0,0.06172839506172839,58.51851851851851,0)" xlink:href="#W"/><use transform="matrix(0.06172839506172839,0,0,0.06172839506172839,72.03703703703702,0)" xlink:href="#ab"/></g><g id="o"><use transform="matrix(0.06172839506172839,0,0,0.06172839506172839,0,0)" xlink:href="#au"/><use transform="matrix(0.06172839506172839,0,0,0.06172839506172839,7.345679012345679,0)" xlink:href="#ap"/><use transform="matrix(0.06172839506172839,0,0,0.06172839506172839,13.518518518518519,0)" xlink:href="#av"/><use transform="matrix(0.06172839506172839,0,0,0.06172839506172839,19.691358024691358,0)" xlink:href="#ai"/></g><path fill="#333" d="M13-81c0-71 46-101 114-85l-1-72-28-4v-8h57v238c8 3 24-2 21 12h-47l-2-12C80 23 13-1 13-81zm77-74c-37 1-44 33-45 74 0 38 9 66 45 66 14 0 27-3 36-7v-130c-10-1-24-3-36-3" id="aw"/><path fill="#333" d="M90-170c52 0 76 32 76 87 0 54-24 87-77 87-51 0-75-34-75-87 0-54 24-87 76-87zM89-10c39 0 46-35 46-73 0-39-7-73-46-73-39 1-44 34-44 73s6 72 44 73" id="ax"/><path fill="#333" d="M161-154L85 37C75 66 49 86 8 75V39c18-2 6 24 29 21 30-4 38-32 47-58L21-153c-7-3-20 0-17-12h77v8l-26 4 45 116 43-116-26-4v-8h62v8" id="ay"/><g id="p"><use transform="matrix(0.06172839506172839,0,0,0.06172839506172839,0,0)" xlink:href="#aw"/><use transform="matrix(0.06172839506172839,0,0,0.06172839506172839,11.11111111111111,0)" xlink:href="#ap"/><use transform="matrix(0.06172839506172839,0,0,0.06172839506172839,17.28395061728395,0)" xlink:href="#aj"/><use transform="matrix(0.06172839506172839,0,0,0.06172839506172839,24.629629629629626,0)" xlink:href="#ai"/><use transform="matrix(0.06172839506172839,0,0,0.06172839506172839,34.44444444444444,0)" xlink:href="#ak"/><use transform="matrix(0.06172839506172839,0,0,0.06172839506172839,44.25925925925926,0)" xlink:href="#aq"/><use transform="matrix(0.06172839506172839,0,0,0.06172839506172839,50.4320987654321,0)" xlink:href="#ax"/><use transform="matrix(0.06172839506172839,0,0,0.06172839506172839,61.543209876543216,0)" xlink:href="#aj"/><use transform="matrix(0.06172839506172839,0,0,0.06172839506172839,68.8888888888889,0)" xlink:href="#ay"/></g><g id="q"><use transform="matrix(0.06172839506172839,0,0,0.06172839506172839,0,0)" xlink:href="#ab"/><use transform="matrix(0.06172839506172839,0,0,0.06172839506172839,11.728395061728394,0)" xlink:href="#am"/><use transform="matrix(0.06172839506172839,0,0,0.06172839506172839,27.716049382716047,0)" xlink:href="#V"/><use transform="matrix(0.06172839506172839,0,0,0.06172839506172839,42.53086419753086,0)" xlink:href="#an"/><use transform="matrix(0.06172839506172839,0,0,0.06172839506172839,58.51851851851851,0)" xlink:href="#W"/><use transform="matrix(0.06172839506172839,0,0,0.06172839506172839,72.03703703703702,0)" xlink:href="#ab"/></g><g id="r"><use transform="matrix(0.06172839506172839,0,0,0.06172839506172839,0,0)" xlink:href="#au"/><use transform="matrix(0.06172839506172839,0,0,0.06172839506172839,7.345679012345679,0)" xlink:href="#ap"/><use transform="matrix(0.06172839506172839,0,0,0.06172839506172839,13.518518518518519,0)" xlink:href="#av"/><use transform="matrix(0.06172839506172839,0,0,0.06172839506172839,19.691358024691358,0)" xlink:href="#ai"/></g><g id="s"><use transform="matrix(0.06172839506172839,0,0,0.06172839506172839,0,0)" xlink:href="#ap"/><use transform="matrix(0.06172839506172839,0,0,0.06172839506172839,6.172839506172839,0)" xlink:href="#ar"/></g><path fill="#333" d="M141-152c28 39 5 97-54 97-9 0-20-2-27-3L49-35c29 22 130-14 124 52-4 45-38 57-88 61C21 83-8 26 45-2 33-6 22-15 21-31l28-31c-19-9-28-26-28-51-2-51 53-65 100-52l38-20 7 8zM85 64c35 0 61-11 61-42 0-35-57-17-89-21-9 8-16 19-17 34 0 25 19 29 45 29zM52-113c1 26 7 46 35 44 28-1 34-16 35-44 0-26-6-43-34-43s-36 17-36 43" id="az"/><g id="t"><use transform="matrix(0.06172839506172839,0,0,0.06172839506172839,0,0)" xlink:href="#Z"/><use transform="matrix(0.06172839506172839,0,0,0.06172839506172839,7.345679012345679,0)" xlink:href="#az"/><use transform="matrix(0.06172839506172839,0,0,0.06172839506172839,18.45679012345679,0)" xlink:href="#ar"/><use transform="matrix(0.06172839506172839,0,0,0.06172839506172839,29.567901234567902,0)" xlink:href="#ax"/><use transform="matrix(0.06172839506172839,0,0,0.06172839506172839,40.67901234567901,0)" xlink:href="#aj"/><use transform="matrix(0.06172839506172839,0,0,0.06172839506172839,48.02469135802469,0)" xlink:href="#ai"/></g><path fill="#333" d="M52-115c0 93 80 130 150 87l7-35h11l-1 55c-23 7-52 12-83 12C60 4 19-37 15-115c-5-113 97-141 201-114l1 51h-12l-5-30c-15-9-39-16-62-16-66 0-86 41-86 109" id="aA"/><g id="u"><use transform="matrix(0.06172839506172839,0,0,0.06172839506172839,0,0)" xlink:href="#V"/><use transform="matrix(0.06172839506172839,0,0,0.06172839506172839,14.814814814814813,0)" xlink:href="#W"/><use transform="matrix(0.06172839506172839,0,0,0.06172839506172839,28.33333333333333,0)" xlink:href="#aA"/><use transform="matrix(0.06172839506172839,0,0,0.06172839506172839,43.14814814814814,0)" xlink:href="#Z"/><use transform="matrix(0.06172839506172839,0,0,0.06172839506172839,50.493827160493815,0)" xlink:href="#U"/><use transform="matrix(0.06172839506172839,0,0,0.06172839506172839,62.83950617283949,0)" xlink:href="#W"/></g><path fill="#333" d="M75-106v92l39 5v9H13v-9l28-5v-208l-31-4v-10h177v57h-11l-6-38c-28-4-63-3-95-3v98h69l5-28h11v73h-11l-5-29H75" id="aB"/><path fill="#333" d="M124-13C89 8 26 15 26-45v-108c-8-3-24 2-21-12h50v118c-3 37 42 32 69 25v-131l-25-4v-8h54v153c8 3 24-2 21 12h-48" id="aC"/><g id="v"><use transform="matrix(0.061728395061728385,0,0,0.061728395061728385,0,0)" xlink:href="#aB"/><use transform="matrix(0.061728395061728385,0,0,0.061728395061728385,12.345679012345677,0)" xlink:href="#ax"/><use transform="matrix(0.061728395061728385,0,0,0.061728395061728385,23.456790123456784,0)" xlink:href="#aC"/><use transform="matrix(0.061728395061728385,0,0,0.061728395061728385,34.56790123456789,0)" xlink:href="#ar"/><use transform="matrix(0.061728395061728385,0,0,0.061728395061728385,45.679012345679,0)" xlink:href="#aw"/><use transform="matrix(0.061728395061728385,0,0,0.061728395061728385,56.790123456790106,0)" xlink:href="#ac"/></g><path fill="#333" d="M156-12c7 3 23-1 20 12h-75v-8l22-4-38-58-45 58 23 4v8H3v-8l19-3 55-71-48-71c-7-3-23 1-20-12h75v8l-22 4 32 48 37-48-23-4v-8h59v8l-19 3-46 60" id="aD"/><g id="w"><use transform="matrix(0.061728395061728385,0,0,0.061728395061728385,0,0)" xlink:href="#W"/><use transform="matrix(0.061728395061728385,0,0,0.061728395061728385,13.518518518518515,0)" xlink:href="#aD"/><use transform="matrix(0.061728395061728385,0,0,0.061728395061728385,24.629629629629626,0)" xlink:href="#ap"/><use transform="matrix(0.061728395061728385,0,0,0.061728395061728385,30.802469135802465,0)" xlink:href="#T"/><use transform="matrix(0.061728395061728385,0,0,0.061728395061728385,39.44444444444444,0)" xlink:href="#aq"/><use transform="matrix(0.061728395061728385,0,0,0.061728395061728385,45.61728395061728,0)" xlink:href="#ac"/></g><path fill="#333" d="M175-184c0-38-38-37-76-36l-16 87c51 2 92 0 92-51zm-2 113c0-47-45-47-93-46L63-16c56 3 110 5 110-55zm37-1C212 20 96-1 3 0l2-9 23-5 37-208-29-4 1-10c70 5 175-20 175 50 0 39-26 55-59 61 34 3 56 17 57 53" id="aE"/><use transform="matrix(0.06172839506172839,0,0,0.06172839506172839,0,0)" xlink:href="#aE" id="x"/><path fill="#333" d="M185-92v17H18v-17h167zm0-73v18H18v-18h167" id="aF"/><use transform="matrix(0.06172839506172839,0,0,0.06172839506172839,0,0)" xlink:href="#aF" id="y"/><g id="z"><use transform="matrix(0.06172839506172839,0,0,0.06172839506172839,0,0)" xlink:href="#as"/><use transform="matrix(0.06172839506172839,0,0,0.06172839506172839,17.28395061728395,0)" xlink:href="#ax"/><use transform="matrix(0.06172839506172839,0,0,0.06172839506172839,28.39506172839506,0)" xlink:href="#aw"/><use transform="matrix(0.06172839506172839,0,0,0.06172839506172839,39.50617283950617,0)" xlink:href="#ap"/><use transform="matrix(0.06172839506172839,0,0,0.06172839506172839,45.67901234567901,0)" xlink:href="#au"/><use transform="matrix(0.06172839506172839,0,0,0.06172839506172839,53.02469135802469,0)" xlink:href="#ap"/><use transform="matrix(0.06172839506172839,0,0,0.06172839506172839,59.19753086419753,0)" xlink:href="#ai"/><use transform="matrix(0.06172839506172839,0,0,0.06172839506172839,69.01234567901234,0)" xlink:href="#aw"/></g><g id="A"><use transform="matrix(0.06172839506172839,0,0,0.06172839506172839,0,0)" xlink:href="#aw"/><use transform="matrix(0.06172839506172839,0,0,0.06172839506172839,11.11111111111111,0)" xlink:href="#S"/><use transform="matrix(0.06172839506172839,0,0,0.06172839506172839,20.925925925925924,0)" xlink:href="#aq"/><use transform="matrix(0.06172839506172839,0,0,0.06172839506172839,27.098765432098762,0)" xlink:href="#ai"/></g><g id="B"><use transform="matrix(0.06172839506172839,0,0,0.06172839506172839,0,0)" xlink:href="#ax"/><use transform="matrix(0.06172839506172839,0,0,0.06172839506172839,11.11111111111111,0)" xlink:href="#au"/></g><g id="C"><use transform="matrix(0.06172839506172839,0,0,0.06172839506172839,0,0)" xlink:href="#au"/><use transform="matrix(0.06172839506172839,0,0,0.06172839506172839,7.345679012345679,0)" xlink:href="#ap"/><use transform="matrix(0.06172839506172839,0,0,0.06172839506172839,13.518518518518519,0)" xlink:href="#av"/><use transform="matrix(0.06172839506172839,0,0,0.06172839506172839,19.691358024691358,0)" xlink:href="#ai"/></g><g id="D"><use transform="matrix(0.061728395061728385,0,0,0.061728395061728385,0,0)" xlink:href="#Z"/><use transform="matrix(0.061728395061728385,0,0,0.061728395061728385,7.345679012345678,0)" xlink:href="#T"/></g><use transform="matrix(0.061728395061728385,0,0,0.061728395061728385,0,0)" xlink:href="#aE" id="E"/><g id="F"><use transform="matrix(0.061728395061728385,0,0,0.061728395061728385,0,0)" xlink:href="#av"/><use transform="matrix(0.061728395061728385,0,0,0.061728395061728385,6.1728395061728385,0)" xlink:href="#S"/><use transform="matrix(0.061728395061728385,0,0,0.061728395061728385,15.987654320987652,0)" xlink:href="#aq"/><use transform="matrix(0.061728395061728385,0,0,0.061728395061728385,22.16049382716049,0)" xlink:href="#ai"/><use transform="matrix(0.061728395061728385,0,0,0.061728395061728385,31.975308641975303,0)" xlink:href="#T"/><use transform="matrix(0.061728395061728385,0,0,0.061728395061728385,40.61728395061728,0)" xlink:href="#aq"/></g><g id="G"><use transform="matrix(0.061728395061728385,0,0,0.061728395061728385,0,0)" xlink:href="#aq"/><use transform="matrix(0.061728395061728385,0,0,0.061728395061728385,6.1728395061728385,0)" xlink:href="#al"/><use transform="matrix(0.061728395061728385,0,0,0.061728395061728385,17.28395061728395,0)" xlink:href="#S"/><use transform="matrix(0.061728395061728385,0,0,0.061728395061728385,27.098765432098762,0)" xlink:href="#ar"/></g><path fill="#333" d="M46-9l-1 9h-65C-21-13-7-11 2-14l120-224h33l44 224 22 5-2 9h-83l2-9 25-5-11-68H59L23-14zm81-203L67-98h82" id="aG"/><g id="H"><use transform="matrix(0.061728395061728385,0,0,0.061728395061728385,0,0)" xlink:href="#aG"/><use transform="matrix(0.061728395061728385,0,0,0.061728395061728385,13.518518518518515,0)" xlink:href="#ac"/></g><g id="I"><use transform="matrix(0.06172839506172839,0,0,0.06172839506172839,0,0)" xlink:href="#V"/><use transform="matrix(0.06172839506172839,0,0,0.06172839506172839,14.814814814814813,0)" xlink:href="#aC"/><use transform="matrix(0.06172839506172839,0,0,0.06172839506172839,25.925925925925924,0)" xlink:href="#ar"/></g><path fill="#333" d="M6-13l30-5v-200l-30-5v-13h201v60h-16l-6-38-93-2v86h61l6-26h16v73h-16l-6-27H92v91l104-3 10-44h16l-4 66H6v-13" id="aH"/><path fill="#333" d="M127-114c3-31-26-38-50-25v123l15 4V0H10v-12l16-4v-133l-16-5v-11h64l2 14c31-23 102-32 102 30v105l17 4V0h-82v-12l14-4v-98" id="aI"/><path fill="#333" d="M15-82c-4-69 47-101 113-83l-1-69-17-4v-12h68v234l18 4V0h-63l-4-9C77 23 5-9 15-82zm112-66c-43-16-64 17-61 65 2 33 3 67 32 67 12 0 22-3 29-8v-124" id="aJ"/><g id="J"><use transform="matrix(0.06172839506172839,0,0,0.06172839506172839,0,0)" xlink:href="#aH"/><use transform="matrix(0.06172839506172839,0,0,0.06172839506172839,14.814814814814813,0)" xlink:href="#aI"/><use transform="matrix(0.06172839506172839,0,0,0.06172839506172839,27.160493827160494,0)" xlink:href="#aJ"/></g><use transform="matrix(0.06172839506172839,0,0,0.06172839506172839,0,0)" xlink:href="#aG" id="K"/><g id="L"><use transform="matrix(0.06172839506172839,0,0,0.06172839506172839,0,0)" xlink:href="#au"/><use transform="matrix(0.06172839506172839,0,0,0.06172839506172839,7.345679012345679,0)" xlink:href="#ap"/><use transform="matrix(0.06172839506172839,0,0,0.06172839506172839,13.518518518518519,0)" xlink:href="#av"/><use transform="matrix(0.06172839506172839,0,0,0.06172839506172839,19.691358024691358,0)" xlink:href="#ai"/></g><path fill="#333" d="M166-85c3 67-44 102-111 85l1 64 29 4v9H6v-9l21-4v-217c-7-3-22 1-19-12h46l1 9c11-8 26-14 45-14 47 2 64 36 66 85zM56-13c53 14 83-14 78-72 7-53-33-79-78-60v132" id="aK"/><g id="M"><use transform="matrix(0.06172839506172839,0,0,0.06172839506172839,0,0)" xlink:href="#aa"/><use transform="matrix(0.06172839506172839,0,0,0.06172839506172839,12.345679012345679,0)" xlink:href="#aq"/><use transform="matrix(0.06172839506172839,0,0,0.06172839506172839,18.51851851851852,0)" xlink:href="#ax"/><use transform="matrix(0.06172839506172839,0,0,0.06172839506172839,29.62962962962963,0)" xlink:href="#aK"/></g></defs></g></svg>